<svg xmlns="http://www.w3.org/2000/svg" xmlns:xlink="http://www.w3.org/1999/xlink" width="600" zoomAndPan="magnify" viewBox="0 0 450 299.999988" height="400" preserveAspectRatio="xMidYMid meet" version="1.0"><defs><clipPath id="de44c89340"><path d="M 108 15.40625 L 343 15.40625 L 343 284.65625 L 108 284.65625 Z M 108 15.40625 " clip-rule="nonzero"/></clipPath></defs><g clip-path="url(#de44c89340)"><path fill="#c2dfed" d="M 157.839844 192.933594 C 167.105469 192.933594 174.621094 200.445312 174.621094 209.714844 C 174.621094 218.984375 167.105469 226.496094 157.839844 226.496094 C 148.570312 226.496094 141.058594 218.984375 141.058594 209.714844 C 141.058594 200.445312 148.570312 192.933594 157.839844 192.933594 Z M 241.824219 201.625 C 238.644531 196.410156 214.257812 194.359375 209.824219 201.625 C 196.09375 224.128906 172.105469 231.371094 148.296875 238.25 C 140.671875 240.453125 132.714844 244.464844 126.371094 249.246094 C 120.054688 254.003906 114.742188 259.8125 110.355469 266.390625 C 107.871094 270.113281 108.742188 275.089844 112.347656 277.746094 C 114.503906 279.335938 116.421875 280.117188 119.222656 279.628906 C 121.542969 279.226562 123.421875 278 124.730469 276.046875 C 129.523438 268.90625 135.535156 263.160156 142.726562 258.515625 L 146.6875 255.957031 C 146.867188 255.839844 147.078125 255.832031 147.265625 255.933594 C 147.453125 256.035156 147.5625 256.21875 147.566406 256.433594 L 147.671875 279.058594 C 147.671875 282.09375 150.152344 284.574219 153.1875 284.574219 L 183.199219 284.574219 C 186.234375 284.574219 188.710938 282.09375 188.710938 279.058594 L 188.710938 240.558594 C 188.710938 240.324219 188.851562 240.121094 189.070312 240.03125 C 196.820312 236.9375 202.726562 233.914062 209.332031 228.476562 C 214.742188 224.019531 219.347656 218.769531 223.183594 212.902344 L 225.347656 209.597656 C 225.457031 209.433594 225.625 209.34375 225.824219 209.34375 C 226.019531 209.34375 226.191406 209.433594 226.300781 209.597656 L 228.460938 212.902344 C 236.480469 225.15625 247.335938 233.980469 260.945312 239.382812 L 262.574219 240.03125 C 262.796875 240.117188 262.933594 240.324219 262.933594 240.558594 L 262.933594 279.058594 C 262.933594 282.09375 265.414062 284.570312 268.449219 284.570312 L 298.460938 284.570312 C 301.550781 284.570312 304.074219 282.015625 303.960938 278.859375 C 303.960938 278.851562 303.960938 278.84375 303.960938 278.835938 L 304.082031 256.429688 C 304.082031 256.21875 304.191406 256.035156 304.378906 255.933594 C 304.566406 255.832031 304.78125 255.839844 304.957031 255.953125 C 308.910156 258.492188 312.25 260.570312 315.988281 263.765625 C 320.1875 267.355469 323.839844 271.460938 326.914062 276.046875 C 329.578125 280.015625 334.933594 280.964844 338.785156 278.125 C 340.800781 276.640625 342.128906 275.066406 342.585938 272.460938 C 342.957031 270.34375 342.484375 268.175781 341.292969 266.390625 C 332.085938 252.585938 319.46875 243.191406 303.605469 238.316406 C 303.597656 238.3125 303.589844 238.308594 303.582031 238.308594 C 280.261719 232.304688 255 223.222656 241.824219 201.625 Z M 163.929688 104.351562 L 164.03125 104.386719 C 163.570312 105.671875 163.367188 106.382812 162.433594 107.519531 C 153.457031 118.441406 161.230469 134.972656 175.40625 134.972656 C 189.578125 134.972656 197.363281 118.449219 188.378906 107.519531 C 188.082031 107.15625 187.816406 106.769531 187.59375 106.359375 L 187.496094 106.394531 C 186.898438 104.699219 186.886719 104.671875 186.753906 103.292969 C 186.738281 103.128906 186.789062 102.980469 186.898438 102.855469 C 187.011719 102.734375 187.15625 102.671875 187.320312 102.671875 L 220.933594 102.671875 C 221.246094 102.671875 221.503906 102.925781 221.503906 103.242188 L 221.503906 137.515625 C 221.503906 141.324219 224.625 144.402344 228.386719 144.402344 C 232.019531 144.402344 234.957031 143.480469 237.769531 141.171875 C 244.035156 136.019531 253.804688 140.386719 253.804688 148.765625 C 253.804688 157.144531 244.035156 161.507812 237.769531 156.359375 C 234.941406 154.035156 232.011719 153.128906 228.386719 153.128906 C 224.589844 153.128906 221.503906 156.21875 221.503906 160.015625 L 221.503906 182.351562 C 221.503906 182.511719 221.441406 182.652344 221.324219 182.765625 C 221.203125 182.875 221.0625 182.929688 220.898438 182.917969 C 216.378906 182.65625 212.699219 182.253906 208.128906 181.320312 C 170.960938 173.726562 143.347656 141.835938 141.277344 103.792969 L 141.25 103.269531 C 141.242188 103.109375 141.292969 102.964844 141.40625 102.847656 C 141.519531 102.730469 141.65625 102.671875 141.820312 102.671875 L 163.488281 102.671875 C 163.65625 102.671875 163.800781 102.734375 163.914062 102.863281 C 164.027344 102.988281 164.074219 103.140625 164.054688 103.308594 Z M 284.289062 158.460938 C 298.914062 143.835938 307.597656 124.453125 308.71875 103.792969 L 308.746094 103.269531 C 308.753906 103.109375 308.703125 102.964844 308.589844 102.847656 C 308.480469 102.730469 308.339844 102.671875 308.179688 102.671875 L 285.84375 102.671875 C 282.046875 102.671875 278.957031 99.582031 278.957031 95.785156 C 278.957031 92.15625 279.835938 89.238281 282.171875 86.394531 C 287.375 80.066406 282.910156 70.367188 274.59375 70.367188 C 269.175781 70.367188 264.785156 74.757812 264.785156 80.171875 C 264.785156 86.964844 270.226562 86.59375 270.226562 95.785156 C 270.226562 99.582031 267.136719 102.671875 263.34375 102.671875 L 229.066406 102.671875 C 228.753906 102.671875 228.496094 102.925781 228.496094 103.238281 L 228.496094 136.851562 C 228.496094 137.019531 228.5625 137.164062 228.6875 137.273438 C 228.8125 137.386719 228.964844 137.433594 229.132812 137.417969 C 230.789062 137.226562 231.863281 137.007812 233.34375 135.792969 C 244.269531 126.8125 260.800781 134.589844 260.800781 148.765625 C 260.800781 162.9375 244.269531 170.714844 233.34375 161.738281 C 231.855469 160.511719 230.777344 160.289062 229.128906 160.113281 C 228.960938 160.097656 228.8125 160.144531 228.6875 160.257812 C 228.5625 160.367188 228.5 160.511719 228.5 160.679688 L 228.5 182.351562 C 228.5 182.515625 228.558594 182.65625 228.675781 182.765625 C 228.792969 182.878906 228.9375 182.929688 229.097656 182.921875 L 229.621094 182.894531 C 250.28125 181.769531 269.664062 173.085938 284.289062 158.460938 Z M 226.773438 42.882812 C 227.882812 41.625 228.496094 40.019531 228.496094 38.328125 L 228.496094 15.992188 C 228.496094 15.832031 228.558594 15.691406 228.675781 15.578125 C 228.792969 15.46875 228.9375 15.417969 229.101562 15.425781 C 234.335938 15.730469 238.613281 16.25 243.886719 17.464844 C 280.109375 25.800781 306.691406 57.265625 308.71875 94.550781 L 308.746094 95.074219 C 308.753906 95.234375 308.703125 95.378906 308.589844 95.496094 C 308.480469 95.613281 308.339844 95.675781 308.179688 95.675781 L 286.496094 95.675781 C 286.328125 95.675781 286.183594 95.609375 286.074219 95.484375 C 285.960938 95.359375 285.914062 95.207031 285.933594 95.039062 C 286.113281 93.441406 286.328125 92.347656 287.570312 90.832031 C 296.488281 79.984375 288.832031 63.375 274.589844 63.375 C 260.351562 63.375 252.691406 79.984375 261.609375 90.832031 C 262.855469 92.347656 263.070312 93.441406 263.25 95.039062 C 263.269531 95.207031 263.21875 95.359375 263.109375 95.484375 C 262.996094 95.609375 262.851562 95.675781 262.683594 95.675781 L 229.066406 95.675781 C 228.753906 95.675781 228.496094 95.417969 228.496094 95.105469 L 228.496094 60.832031 C 228.496094 57.019531 225.367188 53.945312 221.609375 53.945312 C 212.519531 53.945312 212.777344 59.386719 206 59.386719 C 197.28125 59.386719 192.90625 48.800781 199.0625 42.644531 C 202.65625 39.054688 208.390625 38.832031 212.230469 41.984375 C 215.058594 44.3125 217.988281 45.21875 221.609375 45.21875 C 223.742188 45.21875 225.292969 44.355469 226.746094 42.910156 C 226.757812 42.898438 226.765625 42.890625 226.773438 42.882812 Z M 180.816406 108.359375 C 180.8125 108.351562 180.808594 108.34375 180.804688 108.332031 C 180.015625 106.125 179.769531 104.953125 179.769531 102.558594 C 179.769531 98.796875 182.851562 95.675781 186.65625 95.675781 L 220.929688 95.675781 C 221.246094 95.675781 221.5 95.417969 221.5 95.105469 L 221.5 61.496094 C 221.5 61.328125 221.4375 61.183594 221.3125 61.070312 C 221.191406 60.960938 221.039062 60.910156 220.875 60.929688 C 219.257812 61.089844 218.199219 61.28125 216.652344 62.550781 C 205.726562 71.53125 189.199219 63.753906 189.199219 49.578125 C 189.199219 35.402344 205.730469 27.628906 216.652344 36.609375 C 218.144531 37.832031 219.222656 38.058594 220.871094 38.230469 C 221.039062 38.25 221.1875 38.199219 221.3125 38.085938 C 221.4375 37.976562 221.5 37.832031 221.5 37.664062 L 221.5 15.992188 C 221.5 15.828125 221.441406 15.691406 221.324219 15.578125 C 221.207031 15.464844 221.0625 15.414062 220.902344 15.421875 L 220.378906 15.449219 C 184.042969 17.425781 153.132812 42.75 143.914062 77.761719 C 142.332031 83.757812 141.613281 88.921875 141.253906 95.070312 C 141.242188 95.234375 141.296875 95.375 141.40625 95.496094 C 141.519531 95.613281 141.65625 95.671875 141.820312 95.671875 L 164.15625 95.671875 C 167.953125 95.671875 171.042969 98.761719 171.042969 102.558594 C 171.042969 104.078125 170.957031 105.246094 170.554688 106.730469 L 170.539062 106.722656 C 169.882812 108.8125 169.269531 110.167969 167.8125 111.941406 C 164.65625 115.777344 164.882812 121.515625 168.472656 125.105469 C 174.632812 131.265625 185.214844 126.882812 185.214844 118.171875 C 185.214844 113.234375 182.367188 112.074219 180.816406 108.359375 Z M 322.53125 166.324219 C 324.65625 165.75 326.84375 167.003906 327.421875 169.128906 C 327.996094 171.25 326.742188 173.441406 324.617188 174.015625 L 303.792969 179.675781 C 300.964844 180.445312 298.023438 177.9375 298.949219 174.632812 C 298.953125 174.628906 298.953125 174.621094 298.953125 174.617188 L 304.054688 153.929688 C 304.578125 151.796875 306.734375 150.492188 308.867188 151.019531 C 311 151.542969 312.304688 153.695312 311.777344 155.828125 L 311.023438 158.886719 C 310.960938 159.152344 311.089844 159.425781 311.339844 159.539062 C 311.585938 159.65625 311.875 159.582031 312.039062 159.363281 C 342.316406 118.3125 337.386719 60.644531 300.027344 25.410156 C 298.425781 23.90625 298.351562 21.390625 299.855469 19.789062 C 301.359375 18.191406 303.878906 18.113281 305.476562 19.617188 C 346.769531 58.5625 351.273438 122.652344 316.234375 166.972656 C 316.078125 167.167969 316.066406 167.433594 316.207031 167.640625 C 316.34375 167.847656 316.589844 167.941406 316.828125 167.875 Z M 127.46875 32.019531 L 133.167969 30.46875 C 133.410156 30.40625 133.65625 30.496094 133.792969 30.703125 C 133.929688 30.910156 133.917969 31.175781 133.765625 31.371094 C 98.726562 75.691406 103.230469 139.78125 144.519531 178.726562 C 146.121094 180.230469 148.636719 180.15625 150.144531 178.554688 C 151.648438 176.957031 151.570312 174.4375 149.972656 172.933594 C 112.613281 137.699219 107.679688 80.03125 137.960938 38.984375 C 138.121094 38.761719 138.410156 38.691406 138.660156 38.804688 C 138.910156 38.917969 139.039062 39.191406 138.972656 39.457031 L 138.21875 42.515625 C 137.695312 44.648438 139 46.800781 141.132812 47.324219 C 143.265625 47.851562 145.417969 46.546875 145.941406 44.414062 L 151.042969 23.726562 C 151.042969 23.722656 151.046875 23.714844 151.046875 23.710938 C 151.972656 20.40625 149.035156 17.898438 146.203125 18.667969 L 125.378906 24.328125 C 123.257812 24.902344 122 27.09375 122.578125 29.214844 C 123.15625 31.339844 125.34375 32.597656 127.46875 32.019531 Z M 292.160156 192.933594 C 301.429688 192.933594 308.941406 200.445312 308.941406 209.714844 C 308.941406 218.984375 301.429688 226.496094 292.160156 226.496094 C 282.890625 226.496094 275.378906 218.984375 275.378906 209.714844 C 275.378906 200.445312 282.890625 192.933594 292.160156 192.933594 Z M 292.160156 192.933594 " fill-opacity="1" fill-rule="evenodd"/></g></svg>