<svg id="wave" style="transform:rotate(180deg); transition: 0.3s" viewBox="0 0 1440 310" version="1.1" xmlns="http://www.w3.org/2000/svg"><defs><linearGradient id="sw-gradient-0" x1="0" x2="0" y1="1" y2="0"><stop stop-color="rgba(243, 106, 62, 1)" offset="0%"></stop><stop stop-color="rgba(255, 179, 11, 1)" offset="100%"></stop></linearGradient></defs><path style="transform:translate(0, 0px); opacity:1" fill="url(#sw-gradient-0)" d="M0,186L60,186C120,186,240,186,360,165.3C480,145,600,103,720,103.3C840,103,960,145,1080,134.3C1200,124,1320,62,1440,46.5C1560,31,1680,62,1800,103.3C1920,145,2040,196,2160,206.7C2280,217,2400,186,2520,191.2C2640,196,2760,238,2880,232.5C3000,227,3120,176,3240,149.8C3360,124,3480,124,3600,118.8C3720,114,3840,103,3960,98.2C4080,93,4200,93,4320,98.2C4440,103,4560,114,4680,139.5C4800,165,4920,207,5040,191.2C5160,176,5280,103,5400,93C5520,83,5640,134,5760,134.3C5880,134,6000,83,6120,87.8C6240,93,6360,155,6480,165.3C6600,176,6720,134,6840,118.8C6960,103,7080,114,7200,144.7C7320,176,7440,227,7560,206.7C7680,186,7800,93,7920,51.7C8040,10,8160,21,8280,41.3C8400,62,8520,93,8580,108.5L8640,124L8640,310L8580,310C8520,310,8400,310,8280,310C8160,310,8040,310,7920,310C7800,310,7680,310,7560,310C7440,310,7320,310,7200,310C7080,310,6960,310,6840,310C6720,310,6600,310,6480,310C6360,310,6240,310,6120,310C6000,310,5880,310,5760,310C5640,310,5520,310,5400,310C5280,310,5160,310,5040,310C4920,310,4800,310,4680,310C4560,310,4440,310,4320,310C4200,310,4080,310,3960,310C3840,310,3720,310,3600,310C3480,310,3360,310,3240,310C3120,310,3000,310,2880,310C2760,310,2640,310,2520,310C2400,310,2280,310,2160,310C2040,310,1920,310,1800,310C1680,310,1560,310,1440,310C1320,310,1200,310,1080,310C960,310,840,310,720,310C600,310,480,310,360,310C240,310,120,310,60,310L0,310Z"></path><defs><linearGradient id="sw-gradient-1" x1="0" x2="0" y1="1" y2="0"><stop stop-color="rgba(243, 106, 62, 1)" offset="0%"></stop><stop stop-color="rgba(255, 179, 11, 1)" offset="100%"></stop></linearGradient></defs><path style="transform:translate(0, 50px); opacity:0.9" fill="url(#sw-gradient-1)" d="M0,93L60,124C120,155,240,217,360,237.7C480,258,600,238,720,227.3C840,217,960,217,1080,180.8C1200,145,1320,72,1440,46.5C1560,21,1680,41,1800,56.8C1920,72,2040,83,2160,87.8C2280,93,2400,93,2520,82.7C2640,72,2760,52,2880,67.2C3000,83,3120,134,3240,175.7C3360,217,3480,248,3600,248C3720,248,3840,217,3960,191.2C4080,165,4200,145,4320,139.5C4440,134,4560,145,4680,160.2C4800,176,4920,196,5040,186C5160,176,5280,134,5400,139.5C5520,145,5640,196,5760,211.8C5880,227,6000,207,6120,165.3C6240,124,6360,62,6480,31C6600,0,6720,0,6840,25.8C6960,52,7080,103,7200,144.7C7320,186,7440,217,7560,206.7C7680,196,7800,145,7920,124C8040,103,8160,114,8280,108.5C8400,103,8520,83,8580,72.3L8640,62L8640,310L8580,310C8520,310,8400,310,8280,310C8160,310,8040,310,7920,310C7800,310,7680,310,7560,310C7440,310,7320,310,7200,310C7080,310,6960,310,6840,310C6720,310,6600,310,6480,310C6360,310,6240,310,6120,310C6000,310,5880,310,5760,310C5640,310,5520,310,5400,310C5280,310,5160,310,5040,310C4920,310,4800,310,4680,310C4560,310,4440,310,4320,310C4200,310,4080,310,3960,310C3840,310,3720,310,3600,310C3480,310,3360,310,3240,310C3120,310,3000,310,2880,310C2760,310,2640,310,2520,310C2400,310,2280,310,2160,310C2040,310,1920,310,1800,310C1680,310,1560,310,1440,310C1320,310,1200,310,1080,310C960,310,840,310,720,310C600,310,480,310,360,310C240,310,120,310,60,310L0,310Z"></path><defs><linearGradient id="sw-gradient-2" x1="0" x2="0" y1="1" y2="0"><stop stop-color="rgba(243, 106, 62, 1)" offset="0%"></stop><stop stop-color="rgba(53.823, 97.607, 223.495, 1)" offset="100%"></stop></linearGradient></defs><path style="transform:translate(0, 100px); opacity:0.8" fill="url(#sw-gradient-2)" d="M0,93L60,118.8C120,145,240,196,360,180.8C480,165,600,83,720,72.3C840,62,960,124,1080,124C1200,124,1320,62,1440,51.7C1560,41,1680,83,1800,82.7C1920,83,2040,41,2160,25.8C2280,10,2400,21,2520,36.2C2640,52,2760,72,2880,82.7C3000,93,3120,93,3240,118.8C3360,145,3480,196,3600,186C3720,176,3840,103,3960,98.2C4080,93,4200,155,4320,186C4440,217,4560,217,4680,211.8C4800,207,4920,196,5040,165.3C5160,134,5280,83,5400,77.5C5520,72,5640,114,5760,144.7C5880,176,6000,196,6120,175.7C6240,155,6360,93,6480,82.7C6600,72,6720,114,6840,118.8C6960,124,7080,93,7200,93C7320,93,7440,124,7560,144.7C7680,165,7800,176,7920,149.8C8040,124,8160,62,8280,67.2C8400,72,8520,145,8580,180.8L8640,217L8640,310L8580,310C8520,310,8400,310,8280,310C8160,310,8040,310,7920,310C7800,310,7680,310,7560,310C7440,310,7320,310,7200,310C7080,310,6960,310,6840,310C6720,310,6600,310,6480,310C6360,310,6240,310,6120,310C6000,310,5880,310,5760,310C5640,310,5520,310,5400,310C5280,310,5160,310,5040,310C4920,310,4800,310,4680,310C4560,310,4440,310,4320,310C4200,310,4080,310,3960,310C3840,310,3720,310,3600,310C3480,310,3360,310,3240,310C3120,310,3000,310,2880,310C2760,310,2640,310,2520,310C2400,310,2280,310,2160,310C2040,310,1920,310,1800,310C1680,310,1560,310,1440,310C1320,310,1200,310,1080,310C960,310,840,310,720,310C600,310,480,310,360,310C240,310,120,310,60,310L0,310Z"></path><defs><linearGradient id="sw-gradient-3" x1="0" x2="0" y1="1" y2="0"><stop stop-color="rgba(243, 106, 62, 1)" offset="0%"></stop><stop stop-color="rgba(255, 179, 11, 1)" offset="100%"></stop></linearGradient></defs><path style="transform:translate(0, 150px); opacity:0.7" fill="url(#sw-gradient-3)" d="M0,186L60,155C120,124,240,62,360,67.2C480,72,600,145,720,186C840,227,960,238,1080,201.5C1200,165,1320,83,1440,87.8C1560,93,1680,186,1800,232.5C1920,279,2040,279,2160,258.3C2280,238,2400,196,2520,191.2C2640,186,2760,217,2880,232.5C3000,248,3120,248,3240,206.7C3360,165,3480,83,3600,51.7C3720,21,3840,41,3960,51.7C4080,62,4200,62,4320,82.7C4440,103,4560,145,4680,144.7C4800,145,4920,103,5040,108.5C5160,114,5280,165,5400,186C5520,207,5640,196,5760,196.3C5880,196,6000,207,6120,186C6240,165,6360,114,6480,82.7C6600,52,6720,41,6840,41.3C6960,41,7080,52,7200,51.7C7320,52,7440,41,7560,77.5C7680,114,7800,196,7920,196.3C8040,196,8160,114,8280,82.7C8400,52,8520,72,8580,82.7L8640,93L8640,310L8580,310C8520,310,8400,310,8280,310C8160,310,8040,310,7920,310C7800,310,7680,310,7560,310C7440,310,7320,310,7200,310C7080,310,6960,310,6840,310C6720,310,6600,310,6480,310C6360,310,6240,310,6120,310C6000,310,5880,310,5760,310C5640,310,5520,310,5400,310C5280,310,5160,310,5040,310C4920,310,4800,310,4680,310C4560,310,4440,310,4320,310C4200,310,4080,310,3960,310C3840,310,3720,310,3600,310C3480,310,3360,310,3240,310C3120,310,3000,310,2880,310C2760,310,2640,310,2520,310C2400,310,2280,310,2160,310C2040,310,1920,310,1800,310C1680,310,1560,310,1440,310C1320,310,1200,310,1080,310C960,310,840,310,720,310C600,310,480,310,360,310C240,310,120,310,60,310L0,310Z"></path></svg>