<svg xmlns="http://www.w3.org/2000/svg" xmlns:xlink="http://www.w3.org/1999/xlink" width="600" zoomAndPan="magnify" viewBox="0 0 450 299.999988" height="400" preserveAspectRatio="xMidYMid meet" version="1.0"><defs><clipPath id="96e373e3af"><path d="M 73.496094 13.378906 L 372.390625 13.378906 L 372.390625 289.796875 L 73.496094 289.796875 Z M 73.496094 13.378906 " clip-rule="nonzero"/></clipPath><clipPath id="2baa8f9bb9"><path d="M 98.511719 13.378906 L 369.824219 13.378906 L 369.824219 289.796875 L 98.511719 289.796875 Z M 98.511719 13.378906 " clip-rule="nonzero"/></clipPath><clipPath id="aee34aa1c6"><path d="M 73.496094 10.046875 L 365 10.046875 L 365 281 L 73.496094 281 Z M 73.496094 10.046875 " clip-rule="nonzero"/></clipPath><clipPath id="8d892042e2"><path d="M 95.304688 14.019531 L 372.390625 14.019531 L 372.390625 289.796875 L 95.304688 289.796875 Z M 95.304688 14.019531 " clip-rule="nonzero"/></clipPath><clipPath id="a52b87f6d0"><path d="M 129.296875 84 L 376.488281 84 L 376.488281 281.488281 L 129.296875 281.488281 Z M 129.296875 84 " clip-rule="nonzero"/></clipPath></defs><g clip-path="url(#96e373e3af)"><path fill="#c284aa" d="M 337.691406 229.539062 L 326.570312 212.820312 L 322.277344 212.820312 C 317.925781 218.625 313.335938 224.222656 308.542969 229.539062 Z M 118.605469 41.46875 C 118.605469 41.722656 118.628906 41.976562 118.664062 42.222656 C 121.421875 40.347656 124.285156 38.566406 127.230469 36.886719 C 126.347656 36.289062 125.28125 35.9375 124.132812 35.9375 C 121.085938 35.9375 118.605469 38.417969 118.605469 41.46875 Z M 372.257812 239.53125 L 359.363281 239.53125 L 365.203125 289.816406 L 355.835938 289.816406 L 349.996094 239.53125 L 316.976562 239.53125 L 311.140625 289.816406 L 301.769531 289.816406 L 307.613281 239.53125 L 298.96875 239.53125 C 273.992188 263.988281 244.757812 280.472656 216.105469 280.472656 C 203.296875 280.472656 190.609375 277.976562 178.386719 273.484375 L 180.285156 289.816406 L 170.917969 289.816406 L 168.542969 269.386719 C 155.332031 263.246094 142.816406 254.804688 131.457031 244.710938 L 126.21875 289.816406 L 116.855469 289.816406 L 122.691406 239.53125 L 110.507812 239.53125 L 110.507812 229.539062 L 116.34375 229.539062 C 90.410156 200.203125 73.496094 162.082031 73.496094 125.925781 C 73.496094 92.207031 88.207031 66.085938 111.222656 47.707031 C 110.824219 46.886719 110.503906 46.03125 110.273438 45.148438 L 106.058594 44.21875 L 106.058594 38.71875 L 110.273438 37.789062 C 110.601562 36.554688 111.089844 35.371094 111.730469 34.265625 L 109.40625 30.632812 L 113.300781 26.742188 L 116.933594 29.0625 C 118.039062 28.421875 119.21875 27.933594 120.457031 27.605469 L 121.382812 23.390625 L 126.886719 23.390625 L 127.8125 27.605469 C 129.050781 27.933594 130.234375 28.421875 131.335938 29.0625 L 134.972656 26.742188 L 138.863281 30.632812 L 138.578125 31.078125 C 140.671875 30.121094 142.796875 29.203125 144.957031 28.332031 L 144.957031 23.390625 L 159.011719 23.390625 C 170.328125 19.972656 182.265625 17.628906 194.507812 16.367188 C 194.492188 16.261719 194.472656 16.160156 194.472656 16.046875 C 194.472656 14.769531 195.515625 13.730469 196.792969 13.730469 C 198.035156 13.730469 199.042969 14.714844 199.101562 15.941406 C 204.726562 15.488281 210.402344 15.257812 216.105469 15.257812 C 289.339844 15.257812 366.367188 26.324219 366.367188 99.5625 C 366.367188 133.367188 349.957031 174.503906 325.085938 209.007812 L 344.523438 209.007812 L 358.175781 229.539062 L 372.257812 229.539062 Z M 107.652344 18.367188 C 108.929688 18.367188 109.972656 17.328125 109.972656 16.046875 C 109.972656 14.769531 108.929688 13.730469 107.652344 13.730469 C 106.375 13.730469 105.332031 14.769531 105.332031 16.046875 C 105.332031 17.328125 106.375 18.367188 107.652344 18.367188 Z M 285.652344 16.046875 C 285.652344 14.769531 286.695312 13.730469 287.972656 13.730469 C 289.253906 13.730469 290.292969 14.769531 290.292969 16.046875 C 290.292969 17.328125 289.253906 18.367188 287.972656 18.367188 C 286.695312 18.367188 285.652344 17.328125 285.652344 16.046875 " fill-opacity="1" fill-rule="nonzero"/></g><g clip-path="url(#2baa8f9bb9)"><path fill="#c2dfed" d="M 281.621094 17.726562 C 282.546875 17.726562 283.296875 16.976562 283.296875 16.046875 C 283.296875 15.125 282.546875 14.371094 281.621094 14.371094 C 280.691406 14.371094 279.941406 15.125 279.941406 16.046875 C 279.941406 16.976562 280.691406 17.726562 281.621094 17.726562 Z M 319.582031 67.945312 L 327.390625 67.945312 L 327.390625 66.023438 L 319.582031 66.023438 Z M 316.546875 41.980469 L 305.902344 35.621094 L 305.902344 48.339844 Z M 343.148438 59.542969 L 279.300781 59.542969 L 279.300781 26.191406 L 343.148438 26.191406 Z M 330.792969 63.882812 L 325.351562 63.882812 L 325.351562 65.808594 L 330.792969 65.808594 Z M 319.582031 63.882812 L 319.582031 65.808594 L 325.019531 65.808594 L 325.019531 63.882812 Z M 330.792969 61.746094 L 319.582031 61.746094 L 319.582031 63.671875 L 330.792969 63.671875 Z M 151.257812 68.054688 L 144.730469 68.054688 L 144.730469 68.695312 L 151.257812 68.695312 Z M 154.65625 66.554688 L 154.65625 65.914062 L 150.503906 65.914062 L 150.503906 66.554688 Z M 148.882812 65.914062 L 144.730469 65.914062 L 144.730469 66.554688 L 148.882812 66.554688 Z M 154.65625 63.777344 L 144.730469 63.777344 L 144.730469 64.417969 L 154.65625 64.417969 Z M 110.304688 68.054688 L 103.777344 68.054688 L 103.777344 68.695312 L 110.304688 68.695312 Z M 113.703125 66.554688 L 113.703125 65.914062 L 109.550781 65.914062 L 109.550781 66.554688 Z M 107.929688 65.914062 L 103.777344 65.914062 L 103.777344 66.554688 L 107.929688 66.554688 Z M 113.703125 63.777344 L 103.777344 63.777344 L 103.777344 64.417969 L 113.703125 64.417969 Z M 157.015625 48.136719 L 145.597656 48.136719 L 145.597656 52.136719 L 157.015625 52.136719 Z M 157.015625 30.707031 L 145.597656 30.707031 L 145.597656 34.699219 L 157.015625 34.699219 Z M 101.300781 17.726562 C 102.222656 17.726562 102.976562 16.976562 102.976562 16.046875 C 102.976562 15.125 102.222656 14.371094 101.300781 14.371094 C 100.371094 14.371094 99.621094 15.125 99.621094 16.046875 C 99.621094 16.976562 100.371094 17.726562 101.300781 17.726562 Z M 114.582031 41.46875 C 114.582031 46.734375 118.867188 51.019531 124.132812 51.019531 C 129.402344 51.019531 133.6875 46.734375 133.6875 41.46875 C 133.6875 36.203125 129.402344 31.914062 124.132812 31.914062 C 118.867188 31.914062 114.582031 36.203125 114.582031 41.46875 Z M 113.941406 41.46875 C 113.941406 35.847656 118.515625 31.273438 124.132812 31.273438 C 129.757812 31.273438 134.328125 35.847656 134.328125 41.46875 C 134.328125 47.089844 129.757812 51.660156 124.132812 51.660156 C 118.515625 51.660156 113.941406 47.089844 113.941406 41.46875 Z M 235.648438 99.011719 C 235.125 99.011719 234.648438 99.4375 234.582031 99.960938 C 234.515625 100.484375 234.886719 100.910156 235.410156 100.910156 C 235.933594 100.910156 236.414062 100.484375 236.476562 99.960938 C 236.542969 99.4375 236.171875 99.011719 235.648438 99.011719 Z M 262.875 99.316406 L 253.324219 99.316406 C 252.972656 99.316406 252.683594 99.605469 252.683594 99.960938 C 252.683594 100.316406 252.972656 100.601562 253.324219 100.601562 L 262.875 100.601562 C 263.230469 100.601562 263.515625 100.316406 263.515625 99.960938 C 263.515625 99.605469 263.230469 99.316406 262.875 99.316406 Z M 190.441406 18.367188 C 191.71875 18.367188 192.761719 17.328125 192.761719 16.046875 C 192.761719 14.769531 191.71875 13.730469 190.441406 13.730469 C 189.160156 13.730469 188.121094 14.769531 188.121094 16.046875 C 188.121094 17.328125 189.160156 18.367188 190.441406 18.367188 Z M 207.738281 61.511719 C 207.738281 62.523438 208.5625 63.347656 209.574219 63.347656 L 223.464844 63.347656 C 224.476562 63.347656 225.300781 62.523438 225.300781 61.511719 C 225.300781 60.5 224.476562 59.679688 223.464844 59.679688 L 209.574219 59.679688 C 208.5625 59.679688 207.738281 60.5 207.738281 61.511719 Z M 195.035156 52.1875 L 208.929688 52.1875 C 209.941406 52.1875 210.765625 51.367188 210.765625 50.351562 C 210.765625 49.339844 209.941406 48.515625 208.929688 48.515625 L 195.035156 48.515625 C 194.023438 48.515625 193.199219 49.339844 193.199219 50.351562 C 193.199219 51.367188 194.023438 52.1875 195.035156 52.1875 Z M 195.035156 41.027344 L 219.105469 41.027344 C 220.117188 41.027344 220.9375 40.203125 220.9375 39.1875 C 220.9375 38.175781 220.117188 37.355469 219.105469 37.355469 L 195.035156 37.355469 C 194.023438 37.355469 193.199219 38.175781 193.199219 39.1875 C 193.199219 40.203125 194.023438 41.027344 195.035156 41.027344 Z M 223.746094 52.1875 L 228.660156 52.1875 C 229.671875 52.1875 230.492188 51.367188 230.492188 50.351562 C 230.492188 49.339844 229.671875 48.515625 228.660156 48.515625 L 223.746094 48.515625 C 222.734375 48.515625 221.910156 49.339844 221.910156 50.351562 C 221.910156 51.367188 222.734375 52.1875 223.746094 52.1875 Z M 218.738281 52.1875 C 219.75 52.1875 220.574219 51.367188 220.574219 50.351562 C 220.574219 49.339844 219.75 48.515625 218.738281 48.515625 L 213.824219 48.515625 C 212.8125 48.515625 211.988281 49.339844 211.988281 50.351562 C 211.988281 51.367188 212.8125 52.1875 213.824219 52.1875 Z M 195.035156 35.445312 L 199.949219 35.445312 C 200.960938 35.445312 201.785156 34.621094 201.785156 33.609375 C 201.785156 32.597656 200.960938 31.773438 199.949219 31.773438 L 195.035156 31.773438 C 194.023438 31.773438 193.199219 32.597656 193.199219 33.609375 C 193.199219 34.621094 194.023438 35.445312 195.035156 35.445312 Z M 195.035156 29.863281 L 211.578125 29.863281 C 212.589844 29.863281 213.414062 29.042969 213.414062 28.03125 C 213.414062 27.015625 212.589844 26.191406 211.578125 26.191406 L 195.035156 26.191406 C 194.023438 26.191406 193.199219 27.015625 193.199219 28.03125 C 193.199219 29.042969 194.023438 29.863281 195.035156 29.863281 Z M 230.761719 272.410156 L 114.019531 272.410156 C 109.210938 272.410156 105.3125 276.304688 105.3125 281.113281 C 105.3125 285.921875 109.210938 289.816406 114.019531 289.816406 L 230.761719 289.816406 C 235.570312 289.816406 239.46875 285.921875 239.46875 281.113281 C 239.46875 276.304688 235.570312 272.410156 230.761719 272.410156 Z M 365.449219 90.554688 C 365.449219 90.203125 365.164062 89.914062 364.808594 89.914062 L 333.273438 89.914062 C 332.917969 89.914062 332.632812 90.203125 332.632812 90.554688 C 332.632812 90.914062 332.917969 91.199219 333.273438 91.199219 L 364.808594 91.199219 C 365.164062 91.199219 365.449219 90.914062 365.449219 90.554688 Z M 350.632812 100.601562 L 356.039062 100.601562 C 356.394531 100.601562 356.679688 100.316406 356.679688 99.960938 C 356.679688 99.605469 356.394531 99.316406 356.039062 99.316406 L 350.632812 99.316406 C 350.28125 99.316406 349.992188 99.605469 349.992188 99.960938 C 349.992188 100.316406 350.28125 100.601562 350.632812 100.601562 Z M 363.347656 104.152344 C 363.347656 103.796875 363.0625 103.511719 362.707031 103.511719 L 350.105469 103.511719 C 349.753906 103.511719 349.464844 103.796875 349.464844 104.152344 C 349.464844 104.503906 349.753906 104.792969 350.105469 104.792969 L 362.707031 104.792969 C 363.0625 104.792969 363.347656 104.503906 363.347656 104.152344 Z M 349.582031 108.984375 L 356.050781 108.984375 C 356.40625 108.984375 356.691406 108.695312 356.691406 108.34375 C 356.691406 107.988281 356.40625 107.703125 356.050781 107.703125 L 349.582031 107.703125 C 349.226562 107.703125 348.941406 107.988281 348.941406 108.34375 C 348.941406 108.695312 349.226562 108.984375 349.582031 108.984375 Z M 345.789062 135.722656 C 345.433594 135.722656 345.148438 136.007812 345.148438 136.363281 C 345.148438 136.71875 345.433594 137.007812 345.789062 137.007812 L 351.195312 137.007812 C 351.546875 137.007812 351.835938 136.71875 351.835938 136.363281 C 351.835938 136.007812 351.546875 135.722656 351.195312 135.722656 Z M 358.503906 140.554688 C 358.503906 140.199219 358.214844 139.914062 357.863281 139.914062 L 345.261719 139.914062 C 344.910156 139.914062 344.621094 140.199219 344.621094 140.554688 C 344.621094 140.910156 344.910156 141.195312 345.261719 141.195312 L 357.863281 141.195312 C 358.214844 141.195312 358.503906 140.910156 358.503906 140.554688 Z M 351.847656 144.746094 C 351.847656 144.390625 351.558594 144.105469 351.203125 144.105469 L 344.734375 144.105469 C 344.382812 144.105469 344.09375 144.390625 344.09375 144.746094 C 344.09375 145.097656 344.382812 145.386719 344.734375 145.386719 L 351.203125 145.386719 C 351.558594 145.386719 351.847656 145.097656 351.847656 144.746094 Z M 338.039062 104.636719 C 338.039062 104.28125 337.753906 103.992188 337.398438 103.992188 L 326.59375 103.992188 C 326.238281 103.992188 325.953125 104.28125 325.953125 104.636719 C 325.953125 104.992188 326.238281 105.277344 326.59375 105.277344 L 337.398438 105.277344 C 337.753906 105.277344 338.039062 104.992188 338.039062 104.636719 Z M 332.628906 113.019531 C 332.628906 112.664062 332.34375 112.375 331.988281 112.375 L 322.542969 112.375 C 322.191406 112.375 321.902344 112.664062 321.902344 113.019531 C 321.902344 113.371094 322.191406 113.660156 322.542969 113.660156 L 331.988281 113.660156 C 332.34375 113.660156 332.628906 113.371094 332.628906 113.019531 Z M 330.371094 165.660156 C 330.371094 165.304688 330.085938 165.015625 329.730469 165.015625 L 312.726562 165.015625 C 312.375 165.015625 312.085938 165.304688 312.085938 165.660156 C 312.085938 166.011719 312.375 166.300781 312.726562 166.300781 L 329.730469 166.300781 C 330.085938 166.300781 330.371094 166.011719 330.371094 165.660156 Z M 282.136719 95.285156 L 235.242188 95.285156 C 233.46875 95.285156 231.851562 96.722656 231.628906 98.492188 L 230.859375 104.636719 L 284.167969 104.636719 L 284.9375 98.492188 C 285.164062 96.722656 283.90625 95.285156 282.136719 95.285156 Z M 276.761719 143.503906 C 276.761719 143.148438 276.472656 142.863281 276.121094 142.863281 L 270.398438 142.863281 C 270.042969 142.863281 269.757812 143.148438 269.757812 143.503906 C 269.757812 143.859375 270.042969 144.148438 270.398438 144.148438 L 276.121094 144.148438 C 276.472656 144.148438 276.761719 143.859375 276.761719 143.503906 Z M 262.957031 146.585938 C 262.957031 146.230469 262.671875 145.941406 262.316406 145.941406 L 256.957031 145.941406 C 256.605469 145.941406 256.316406 146.230469 256.316406 146.585938 C 256.316406 146.9375 256.605469 147.226562 256.957031 147.226562 L 262.316406 147.226562 C 262.671875 147.226562 262.957031 146.9375 262.957031 146.585938 Z M 251.867188 143.503906 C 251.867188 143.148438 251.578125 142.863281 251.226562 142.863281 L 245.503906 142.863281 C 245.148438 142.863281 244.863281 143.148438 244.863281 143.503906 C 244.863281 143.859375 245.148438 144.148438 245.503906 144.148438 L 251.226562 144.148438 C 251.578125 144.148438 251.867188 143.859375 251.867188 143.503906 Z M 236.28125 168.292969 L 231.398438 168.292969 C 230.722656 168.292969 230.109375 168.839844 230.023438 169.511719 C 229.941406 170.183594 230.417969 170.730469 231.089844 170.730469 L 235.976562 170.730469 C 236.648438 170.730469 237.265625 170.183594 237.351562 169.511719 C 237.433594 168.839844 236.957031 168.292969 236.28125 168.292969 Z M 231.265625 159.941406 C 231.789062 159.941406 232.265625 159.515625 232.335938 158.992188 C 232.398438 158.46875 232.027344 158.042969 231.503906 158.042969 C 230.980469 158.042969 230.503906 158.46875 230.4375 158.992188 C 230.371094 159.515625 230.742188 159.941406 231.265625 159.941406 Z M 230.707031 146.585938 C 230.707031 146.9375 230.992188 147.226562 231.347656 147.226562 L 235.28125 147.226562 C 235.636719 147.226562 235.925781 146.9375 235.925781 146.585938 C 235.925781 146.230469 235.636719 145.941406 235.28125 145.941406 L 231.347656 145.941406 C 230.992188 145.941406 230.707031 146.230469 230.707031 146.585938 Z M 255.886719 113.019531 C 255.886719 112.664062 255.601562 112.375 255.246094 112.375 L 243.132812 112.375 C 242.78125 112.375 242.492188 112.664062 242.492188 113.019531 C 242.492188 113.371094 242.78125 113.660156 243.132812 113.660156 L 255.246094 113.660156 C 255.601562 113.660156 255.886719 113.371094 255.886719 113.019531 Z M 296.929688 182.421875 C 296.929688 182.777344 297.214844 183.0625 297.570312 183.0625 L 322.097656 183.0625 C 322.453125 183.0625 322.738281 182.777344 322.738281 182.421875 C 322.738281 182.066406 322.453125 181.777344 322.097656 181.777344 L 297.570312 181.777344 C 297.214844 181.777344 296.929688 182.066406 296.929688 182.421875 Z M 302.492188 138.160156 C 302.492188 138.515625 302.78125 138.800781 303.132812 138.800781 L 309.601562 138.800781 C 309.957031 138.800781 310.246094 138.515625 310.246094 138.160156 C 310.246094 137.804688 309.957031 137.519531 309.601562 137.519531 L 303.132812 137.519531 C 302.78125 137.519531 302.492188 137.804688 302.492188 138.160156 Z M 304.601562 121.398438 C 304.601562 121.753906 304.886719 122.039062 305.242188 122.039062 L 313.035156 122.039062 C 313.390625 122.039062 313.675781 121.753906 313.675781 121.398438 C 313.675781 121.042969 313.390625 120.757812 313.035156 120.757812 L 305.242188 120.757812 C 304.886719 120.757812 304.601562 121.042969 304.601562 121.398438 Z M 306.179688 108.828125 C 306.179688 109.179688 306.464844 109.46875 306.820312 109.46875 L 312.222656 109.46875 C 312.578125 109.46875 312.867188 109.179688 312.867188 108.828125 C 312.867188 108.472656 312.578125 108.183594 312.222656 108.183594 L 306.820312 108.183594 C 306.464844 108.183594 306.179688 108.472656 306.179688 108.828125 Z M 327.65625 121.398438 C 327.65625 121.042969 327.367188 120.757812 327.015625 120.757812 L 315.839844 120.757812 C 315.484375 120.757812 315.199219 121.042969 315.199219 121.398438 C 315.199219 121.753906 315.484375 122.039062 315.839844 122.039062 L 327.015625 122.039062 C 327.367188 122.039062 327.65625 121.753906 327.65625 121.398438 Z M 329.355469 134.609375 C 329.710938 134.609375 329.996094 134.324219 329.996094 133.96875 C 329.996094 133.617188 329.710938 133.328125 329.355469 133.328125 L 319.910156 133.328125 C 319.558594 133.328125 319.269531 133.617188 319.269531 133.96875 C 319.269531 134.324219 319.558594 134.609375 319.910156 134.609375 Z M 369.542969 92.695312 L 359.609375 182.304688 C 359.316406 184.949219 357.082031 186.949219 354.417969 186.949219 L 215.300781 186.949219 C 213.796875 186.949219 212.414062 186.332031 211.414062 185.210938 C 211.210938 184.988281 211.042969 184.75 210.886719 184.503906 C 209.441406 194.769531 202.519531 206.351562 202.519531 215.386719 C 202.519531 225.304688 210.082031 239.53125 210.082031 239.53125 C 210.082031 239.53125 207.398438 261.746094 180.15625 261.746094 C 170.3125 261.746094 163.359375 260.019531 159.785156 258.851562 C 157.929688 258.242188 156.558594 256.683594 156.140625 254.777344 C 152.976562 240.402344 155.121094 219.996094 157.355469 212.820312 C 158.867188 207.96875 157.089844 183.125 151.265625 165.414062 C 148.289062 156.378906 155.019531 147.082031 164.53125 147.082031 L 166.78125 139.914062 C 166.78125 139.914062 173.945312 136.449219 181.515625 137.988281 C 189.085938 139.527344 192.699219 141.609375 195.519531 142.003906 L 193.691406 147.121094 C 196.8125 147.394531 199.605469 149.253906 201.03125 152.085938 C 204.113281 158.203125 209.011719 168.714844 210.617188 176.613281 L 220.046875 91.546875 C 220.339844 88.898438 222.570312 86.902344 225.234375 86.902344 L 364.351562 86.902344 C 365.855469 86.902344 367.238281 87.519531 368.242188 88.640625 C 369.246094 89.761719 369.707031 91.199219 369.542969 92.695312 Z M 239.238281 99.011719 C 238.71875 99.011719 238.238281 99.4375 238.171875 99.960938 C 238.105469 100.484375 238.476562 100.910156 239 100.910156 C 239.523438 100.910156 240.003906 100.484375 240.070312 99.960938 C 240.136719 99.4375 239.765625 99.011719 239.238281 99.011719 Z M 242.832031 99.011719 C 242.308594 99.011719 241.828125 99.4375 241.765625 99.960938 C 241.699219 100.484375 242.070312 100.910156 242.59375 100.910156 C 243.117188 100.910156 243.597656 100.484375 243.660156 99.960938 C 243.726562 99.4375 243.355469 99.011719 242.832031 99.011719 Z M 144.527344 96.082031 L 136.890625 96.082031 L 136.890625 112.738281 L 144.527344 112.738281 Z M 117.734375 112.738281 L 125.371094 112.738281 L 125.371094 98.390625 L 117.734375 98.390625 Z M 106.210938 112.738281 L 98.574219 112.738281 L 98.574219 103.394531 L 106.210938 103.394531 L 106.210938 112.738281 " fill-opacity="1" fill-rule="nonzero"/></g><g clip-path="url(#aee34aa1c6)"><path fill="#ffdaef" d="M 124.132812 47.640625 C 127.542969 47.640625 130.308594 44.878906 130.308594 41.46875 C 130.308594 38.058594 127.542969 35.296875 124.132812 35.296875 C 120.726562 35.296875 117.964844 38.058594 117.964844 41.46875 C 117.964844 44.878906 120.726562 47.640625 124.132812 47.640625 Z M 105.976562 16.046875 C 105.976562 16.976562 106.726562 17.726562 107.652344 17.726562 C 108.582031 17.726562 109.328125 16.976562 109.328125 16.046875 C 109.328125 15.125 108.582031 14.371094 107.652344 14.371094 C 106.726562 14.371094 105.976562 15.125 105.976562 16.046875 Z M 110.226562 30.722656 L 112.488281 34.253906 C 111.714844 35.496094 111.140625 36.867188 110.796875 38.332031 L 106.703125 39.230469 L 106.703125 43.703125 L 110.796875 44.605469 C 111.140625 46.070312 111.714844 47.441406 112.488281 48.683594 L 110.226562 52.214844 L 113.386719 55.378906 L 116.921875 53.121094 C 118.164062 53.890625 119.535156 54.460938 120.996094 54.804688 L 121.898438 58.902344 L 126.371094 58.902344 L 127.273438 54.804688 C 128.734375 54.460938 130.109375 53.890625 131.347656 53.121094 L 134.882812 55.378906 L 138.046875 52.214844 L 135.785156 48.683594 C 136.554688 47.441406 137.128906 46.070312 137.472656 44.605469 L 141.570312 43.703125 L 141.570312 39.230469 L 137.472656 38.332031 C 137.128906 36.867188 136.554688 35.496094 135.785156 34.253906 L 138.046875 30.722656 L 134.882812 27.558594 L 131.347656 29.820312 C 130.109375 29.050781 128.734375 28.472656 127.273438 28.132812 L 126.371094 24.035156 L 121.898438 24.035156 L 120.996094 28.132812 C 119.535156 28.472656 118.164062 29.050781 116.921875 29.820312 L 113.386719 27.558594 Z M 145.597656 45.460938 L 163.042969 45.460938 L 163.042969 41.46875 L 145.597656 41.46875 Z M 145.597656 28.03125 L 163.042969 28.03125 L 163.042969 24.035156 L 145.597656 24.035156 Z M 127.355469 63.777344 L 117.425781 63.777344 L 117.425781 64.417969 L 127.355469 64.417969 Z M 127.355469 65.914062 L 123.199219 65.914062 L 123.199219 66.554688 L 127.355469 66.554688 Z M 121.582031 66.554688 L 121.582031 65.914062 L 117.425781 65.914062 L 117.425781 66.554688 Z M 123.957031 68.054688 L 117.425781 68.054688 L 117.425781 68.695312 L 123.957031 68.695312 Z M 170.722656 60 L 182.328125 60 L 182.328125 42.300781 L 170.722656 42.300781 Z M 170.722656 41.660156 L 182.328125 41.660156 L 182.328125 23.964844 L 170.722656 23.964844 Z M 188.761719 61.511719 C 188.761719 62.175781 189.296875 62.707031 189.957031 62.707031 L 190.070312 62.707031 C 190.730469 62.707031 191.265625 62.175781 191.265625 61.511719 C 191.265625 60.855469 190.730469 60.320312 190.070312 60.320312 L 189.957031 60.320312 C 189.296875 60.320312 188.761719 60.855469 188.761719 61.511719 Z M 188.761719 55.933594 C 188.761719 56.59375 189.296875 57.128906 189.957031 57.128906 L 190.070312 57.128906 C 190.730469 57.128906 191.265625 56.59375 191.265625 55.933594 C 191.265625 55.273438 190.730469 54.738281 190.070312 54.738281 L 189.957031 54.738281 C 189.296875 54.738281 188.761719 55.273438 188.761719 55.933594 Z M 188.761719 50.351562 C 188.761719 51.011719 189.296875 51.546875 189.957031 51.546875 L 190.070312 51.546875 C 190.730469 51.546875 191.265625 51.011719 191.265625 50.351562 C 191.265625 49.691406 190.730469 49.160156 190.070312 49.160156 L 189.957031 49.160156 C 189.296875 49.160156 188.761719 49.691406 188.761719 50.351562 Z M 188.761719 44.769531 C 188.761719 45.429688 189.296875 45.964844 189.957031 45.964844 L 190.070312 45.964844 C 190.730469 45.964844 191.265625 45.429688 191.265625 44.769531 C 191.265625 44.113281 190.730469 43.574219 190.070312 43.574219 L 189.957031 43.574219 C 189.296875 43.574219 188.761719 44.113281 188.761719 44.769531 Z M 188.761719 39.1875 C 188.761719 39.851562 189.296875 40.382812 189.957031 40.382812 L 190.070312 40.382812 C 190.730469 40.382812 191.265625 39.851562 191.265625 39.1875 C 191.265625 38.53125 190.730469 37.996094 190.070312 37.996094 L 189.957031 37.996094 C 189.296875 37.996094 188.761719 38.53125 188.761719 39.1875 Z M 188.761719 33.609375 C 188.761719 34.269531 189.296875 34.804688 189.957031 34.804688 L 190.070312 34.804688 C 190.730469 34.804688 191.265625 34.269531 191.265625 33.609375 C 191.265625 32.949219 190.730469 32.414062 190.070312 32.414062 L 189.957031 32.414062 C 189.296875 32.414062 188.761719 32.949219 188.761719 33.609375 Z M 188.761719 28.03125 C 188.761719 28.6875 189.296875 29.222656 189.957031 29.222656 L 190.070312 29.222656 C 190.730469 29.222656 191.265625 28.6875 191.265625 28.03125 C 191.265625 27.367188 190.730469 26.835938 190.070312 26.835938 L 189.957031 26.835938 C 189.296875 26.835938 188.761719 27.367188 188.761719 28.03125 Z M 188.761719 22.449219 C 188.761719 23.105469 189.296875 23.640625 189.957031 23.640625 L 190.070312 23.640625 C 190.730469 23.640625 191.265625 23.105469 191.265625 22.449219 C 191.265625 21.789062 190.730469 21.253906 190.070312 21.253906 L 189.957031 21.253906 C 189.296875 21.253906 188.761719 21.789062 188.761719 22.449219 Z M 188.761719 16.046875 C 188.761719 16.976562 189.511719 17.726562 190.441406 17.726562 C 191.367188 17.726562 192.117188 16.976562 192.117188 16.046875 C 192.117188 15.125 191.367188 14.371094 190.441406 14.371094 C 189.511719 14.371094 188.761719 15.125 188.761719 16.046875 Z M 193.839844 61.511719 C 193.839844 62.175781 194.375 62.707031 195.035156 62.707031 L 205.164062 62.707031 C 205.824219 62.707031 206.359375 62.175781 206.359375 61.511719 C 206.359375 60.855469 205.824219 60.320312 205.164062 60.320312 L 195.035156 60.320312 C 194.375 60.320312 193.839844 60.855469 193.839844 61.511719 Z M 193.839844 55.933594 C 193.839844 56.59375 194.375 57.128906 195.035156 57.128906 L 216.710938 57.128906 C 217.367188 57.128906 217.90625 56.59375 217.90625 55.933594 C 217.90625 55.273438 217.367188 54.738281 216.710938 54.738281 L 195.035156 54.738281 C 194.375 54.738281 193.839844 55.273438 193.839844 55.933594 Z M 193.839844 50.351562 C 193.839844 51.011719 194.375 51.546875 195.035156 51.546875 L 208.929688 51.546875 C 209.585938 51.546875 210.121094 51.011719 210.121094 50.351562 C 210.121094 49.691406 209.585938 49.160156 208.929688 49.160156 L 195.035156 49.160156 C 194.375 49.160156 193.839844 49.691406 193.839844 50.351562 Z M 193.839844 44.769531 C 193.839844 45.429688 194.375 45.964844 195.035156 45.964844 L 213.375 45.964844 C 214.035156 45.964844 214.566406 45.429688 214.566406 44.769531 C 214.566406 44.113281 214.035156 43.574219 213.375 43.574219 L 195.035156 43.574219 C 194.375 43.574219 193.839844 44.113281 193.839844 44.769531 Z M 193.839844 39.1875 C 193.839844 39.851562 194.375 40.382812 195.035156 40.382812 L 219.105469 40.382812 C 219.765625 40.382812 220.296875 39.851562 220.296875 39.1875 C 220.296875 38.53125 219.765625 37.996094 219.105469 37.996094 L 195.035156 37.996094 C 194.375 37.996094 193.839844 38.53125 193.839844 39.1875 Z M 193.839844 33.609375 C 193.839844 34.269531 194.375 34.804688 195.035156 34.804688 L 199.949219 34.804688 C 200.605469 34.804688 201.144531 34.269531 201.144531 33.609375 C 201.144531 32.949219 200.605469 32.414062 199.949219 32.414062 L 195.035156 32.414062 C 194.375 32.414062 193.839844 32.949219 193.839844 33.609375 Z M 193.839844 28.03125 C 193.839844 28.6875 194.375 29.222656 195.035156 29.222656 L 211.578125 29.222656 C 212.238281 29.222656 212.773438 28.6875 212.773438 28.03125 C 212.773438 27.367188 212.238281 26.835938 211.578125 26.835938 L 195.035156 26.835938 C 194.375 26.835938 193.839844 27.367188 193.839844 28.03125 Z M 193.839844 22.449219 C 193.839844 23.105469 194.375 23.640625 195.035156 23.640625 L 202.632812 23.640625 C 203.289062 23.640625 203.824219 23.105469 203.824219 22.449219 C 203.824219 21.789062 203.289062 21.253906 202.632812 21.253906 L 195.035156 21.253906 C 194.375 21.253906 193.839844 21.789062 193.839844 22.449219 Z M 195.113281 16.046875 C 195.113281 16.976562 195.867188 17.726562 196.792969 17.726562 C 197.722656 17.726562 198.472656 16.976562 198.472656 16.046875 C 198.472656 15.125 197.722656 14.371094 196.792969 14.371094 C 195.867188 14.371094 195.113281 15.125 195.113281 16.046875 Z M 229.9375 32.414062 L 205.867188 32.414062 C 205.210938 32.414062 204.675781 32.949219 204.675781 33.609375 C 204.675781 34.269531 205.210938 34.804688 205.867188 34.804688 L 229.9375 34.804688 C 230.597656 34.804688 231.132812 34.269531 231.132812 33.609375 C 231.132812 32.949219 230.597656 32.414062 229.9375 32.414062 Z M 230.449219 39.1875 C 230.449219 38.53125 229.917969 37.996094 229.257812 37.996094 L 224.34375 37.996094 C 223.683594 37.996094 223.148438 38.53125 223.148438 39.1875 C 223.148438 39.851562 223.683594 40.382812 224.34375 40.382812 L 229.257812 40.382812 C 229.917969 40.382812 230.449219 39.851562 230.449219 39.1875 Z M 229.851562 50.351562 C 229.851562 49.691406 229.316406 49.160156 228.660156 49.160156 L 223.746094 49.160156 C 223.085938 49.160156 222.550781 49.691406 222.550781 50.351562 C 222.550781 51.011719 223.085938 51.546875 223.746094 51.546875 L 228.660156 51.546875 C 229.316406 51.546875 229.851562 51.011719 229.851562 50.351562 Z M 219.933594 50.351562 C 219.933594 49.691406 219.398438 49.160156 218.738281 49.160156 L 213.824219 49.160156 C 213.164062 49.160156 212.632812 49.691406 212.632812 50.351562 C 212.632812 51.011719 213.164062 51.546875 213.824219 51.546875 L 218.738281 51.546875 C 219.398438 51.546875 219.933594 51.011719 219.933594 50.351562 Z M 224.660156 61.511719 C 224.660156 60.855469 224.125 60.320312 223.464844 60.320312 L 209.574219 60.320312 C 208.914062 60.320312 208.378906 60.855469 208.378906 61.511719 C 208.378906 62.175781 208.914062 62.707031 209.574219 62.707031 L 223.464844 62.707031 C 224.125 62.707031 224.660156 62.175781 224.660156 61.511719 Z M 257.535156 60 L 272.722656 60 L 272.722656 42.300781 L 257.535156 42.300781 Z M 257.535156 41.660156 L 272.722656 41.660156 L 272.722656 23.964844 L 257.535156 23.964844 Z M 279.941406 58.902344 L 342.507812 58.902344 L 342.507812 26.835938 L 279.941406 26.835938 Z M 286.292969 16.046875 C 286.292969 16.976562 287.046875 17.726562 287.972656 17.726562 C 288.902344 17.726562 289.652344 16.976562 289.652344 16.046875 C 289.652344 15.125 288.902344 14.371094 287.972656 14.371094 C 287.046875 14.371094 286.292969 15.125 286.292969 16.046875 Z M 330.152344 62.386719 L 320.222656 62.386719 L 320.222656 63.027344 L 330.152344 63.027344 Z M 330.152344 64.523438 L 325.996094 64.523438 L 325.996094 65.164062 L 330.152344 65.164062 Z M 324.378906 65.164062 L 324.378906 64.523438 L 320.222656 64.523438 L 320.222656 65.164062 Z M 326.75 66.664062 L 320.222656 66.664062 L 320.222656 67.304688 L 326.75 67.304688 Z M 309.625 62.386719 L 299.695312 62.386719 L 299.695312 63.027344 L 309.625 63.027344 Z M 309.625 64.523438 L 305.46875 64.523438 L 305.46875 65.164062 L 309.625 65.164062 Z M 303.851562 65.164062 L 303.851562 64.523438 L 299.695312 64.523438 L 299.695312 65.164062 Z M 306.226562 66.664062 L 299.695312 66.664062 L 299.695312 67.304688 L 306.226562 67.304688 Z M 95.515625 72.949219 L 95.515625 13.378906 C 95.515625 11.609375 96.949219 10.171875 98.722656 10.171875 L 167.515625 10.171875 C 169.289062 10.171875 170.722656 11.609375 170.722656 13.378906 L 170.722656 23.320312 L 182.328125 23.320312 L 182.328125 13.378906 C 182.328125 11.609375 183.761719 10.171875 185.535156 10.171875 L 254.328125 10.171875 C 256.101562 10.171875 257.535156 11.609375 257.535156 13.378906 L 257.535156 23.320312 L 272.722656 23.320312 L 272.722656 13.378906 C 272.722656 11.609375 274.160156 10.171875 275.929688 10.171875 L 344.722656 10.171875 C 346.496094 10.171875 347.929688 11.609375 347.929688 13.378906 L 347.929688 60 L 356.21875 60 C 356.347656 60.210938 356.46875 60.429688 356.59375 60.640625 L 347.929688 60.640625 L 347.929688 72.949219 C 347.929688 74.722656 346.496094 76.15625 344.722656 76.15625 L 275.929688 76.15625 C 274.160156 76.15625 272.722656 74.722656 272.722656 72.949219 L 272.722656 60.640625 L 257.535156 60.640625 L 257.535156 66.277344 C 257.535156 68.050781 256.101562 69.484375 254.328125 69.484375 L 185.535156 69.484375 C 183.761719 69.484375 182.328125 68.050781 182.328125 66.277344 L 182.328125 60.640625 L 170.722656 60.640625 L 170.722656 72.949219 C 170.722656 74.722656 169.289062 76.15625 167.515625 76.15625 L 98.722656 76.15625 C 96.949219 76.15625 95.515625 74.722656 95.515625 72.949219 Z M 316.339844 89.914062 C 315.984375 89.914062 315.695312 90.203125 315.695312 90.554688 C 315.695312 90.914062 315.984375 91.199219 316.339844 91.199219 L 329.292969 91.199219 C 329.648438 91.199219 329.933594 90.914062 329.933594 90.554688 C 329.933594 90.203125 329.648438 89.914062 329.292969 89.914062 Z M 330.371094 165.660156 C 330.371094 165.304688 330.085938 165.015625 329.730469 165.015625 L 312.726562 165.015625 C 312.375 165.015625 312.085938 165.304688 312.085938 165.660156 C 312.085938 166.011719 312.375 166.300781 312.726562 166.300781 L 329.730469 166.300781 C 330.085938 166.300781 330.371094 166.011719 330.371094 165.660156 Z M 323.265625 178.230469 C 323.265625 177.875 322.980469 177.589844 322.625 177.589844 L 298.097656 177.589844 C 297.746094 177.589844 297.457031 177.875 297.457031 178.230469 C 297.457031 178.585938 297.746094 178.871094 298.097656 178.871094 L 322.625 178.871094 C 322.980469 178.871094 323.265625 178.585938 323.265625 178.230469 Z M 322.738281 182.421875 C 322.738281 182.066406 322.453125 181.777344 322.097656 181.777344 L 297.570312 181.777344 C 297.214844 181.777344 296.929688 182.066406 296.929688 182.421875 C 296.929688 182.777344 297.214844 183.0625 297.570312 183.0625 L 322.097656 183.0625 C 322.453125 183.0625 322.738281 182.777344 322.738281 182.421875 Z M 298.507812 169.847656 C 298.507812 170.203125 298.796875 170.488281 299.152344 170.488281 L 318.972656 170.488281 C 319.324219 170.488281 319.613281 170.203125 319.613281 169.847656 C 319.613281 169.496094 319.324219 169.207031 318.972656 169.207031 L 299.152344 169.207031 C 298.796875 169.207031 298.507812 169.496094 298.507812 169.847656 Z M 299.039062 165.660156 C 299.039062 166.011719 299.324219 166.300781 299.679688 166.300781 L 308.179688 166.300781 C 308.535156 166.300781 308.820312 166.011719 308.820312 165.660156 C 308.820312 165.304688 308.535156 165.015625 308.179688 165.015625 L 299.679688 165.015625 C 299.324219 165.015625 299.039062 165.304688 299.039062 165.660156 Z M 299.5625 161.46875 C 299.5625 161.824219 299.847656 162.109375 300.207031 162.109375 L 324.730469 162.109375 C 325.085938 162.109375 325.371094 161.824219 325.371094 161.46875 C 325.371094 161.113281 325.085938 160.828125 324.730469 160.828125 L 300.207031 160.828125 C 299.847656 160.828125 299.5625 161.113281 299.5625 161.46875 Z M 294.84375 161.46875 C 294.84375 161.113281 294.554688 160.828125 294.203125 160.828125 L 289.925781 160.828125 C 289.570312 160.828125 289.285156 161.113281 289.285156 161.46875 C 289.285156 161.824219 289.570312 162.109375 289.925781 162.109375 L 294.203125 162.109375 C 294.554688 162.109375 294.84375 161.824219 294.84375 161.46875 Z M 294.316406 165.660156 C 294.316406 165.304688 294.027344 165.015625 293.671875 165.015625 L 289.398438 165.015625 C 289.042969 165.015625 288.757812 165.304688 288.757812 165.660156 C 288.757812 166.011719 289.042969 166.300781 289.398438 166.300781 L 293.671875 166.300781 C 294.027344 166.300781 294.316406 166.011719 294.316406 165.660156 Z M 293.789062 169.847656 C 293.789062 169.496094 293.503906 169.207031 293.148438 169.207031 L 288.871094 169.207031 C 288.515625 169.207031 288.230469 169.496094 288.230469 169.847656 C 288.230469 170.203125 288.515625 170.488281 288.871094 170.488281 L 293.148438 170.488281 C 293.503906 170.488281 293.789062 170.203125 293.789062 169.847656 Z M 292.738281 178.230469 C 292.738281 177.875 292.449219 177.589844 292.09375 177.589844 L 287.816406 177.589844 C 287.464844 177.589844 287.175781 177.875 287.175781 178.230469 C 287.175781 178.585938 287.464844 178.871094 287.816406 178.871094 L 292.09375 178.871094 C 292.449219 178.871094 292.738281 178.585938 292.738281 178.230469 Z M 292.210938 182.421875 C 292.210938 182.066406 291.921875 181.777344 291.570312 181.777344 L 287.292969 181.777344 C 286.9375 181.777344 286.652344 182.066406 286.652344 182.421875 C 286.652344 182.777344 286.9375 183.0625 287.292969 183.0625 L 291.570312 183.0625 C 291.921875 183.0625 292.210938 182.777344 292.210938 182.421875 Z M 338.855469 158.890625 L 335.328125 186.949219 L 327.628906 186.949219 C 327.691406 186.851562 327.738281 186.738281 327.738281 186.613281 C 327.738281 186.257812 327.453125 185.96875 327.097656 185.96875 L 310.09375 185.96875 C 309.742188 185.96875 309.453125 186.257812 309.453125 186.613281 C 309.453125 186.738281 309.5 186.851562 309.5625 186.949219 L 306.078125 186.949219 C 306.140625 186.851562 306.1875 186.738281 306.1875 186.613281 C 306.1875 186.257812 305.898438 185.96875 305.546875 185.96875 L 297.042969 185.96875 C 296.691406 185.96875 296.402344 186.257812 296.402344 186.613281 C 296.402344 186.738281 296.449219 186.851562 296.511719 186.949219 L 291.570312 186.949219 C 291.636719 186.851562 291.679688 186.738281 291.679688 186.613281 C 291.679688 186.257812 291.394531 185.96875 291.039062 185.96875 L 286.765625 185.96875 C 286.410156 185.96875 286.125 186.257812 286.125 186.613281 C 286.125 186.738281 286.167969 186.851562 286.234375 186.949219 L 282.019531 186.949219 L 285.546875 158.890625 C 285.769531 157.121094 287.382812 155.683594 289.15625 155.683594 L 336.050781 155.683594 C 337.820312 155.683594 339.078125 157.121094 338.855469 158.890625 Z M 247.804688 168.292969 L 242.917969 168.292969 C 242.242188 168.292969 241.628906 168.839844 241.546875 169.511719 C 241.460938 170.183594 241.9375 170.730469 242.613281 170.730469 L 247.496094 170.730469 C 248.171875 170.730469 248.785156 170.183594 248.871094 169.511719 C 248.953125 168.839844 248.476562 168.292969 247.804688 168.292969 Z M 236.28125 168.292969 L 231.398438 168.292969 C 230.722656 168.292969 230.109375 168.839844 230.023438 169.511719 C 229.941406 170.183594 230.417969 170.730469 231.089844 170.730469 L 235.976562 170.730469 C 236.648438 170.730469 237.265625 170.183594 237.351562 169.511719 C 237.433594 168.839844 236.957031 168.292969 236.28125 168.292969 Z M 227.910156 158.042969 C 227.386719 158.042969 226.910156 158.46875 226.84375 158.992188 C 226.78125 159.515625 227.148438 159.941406 227.675781 159.941406 C 228.199219 159.941406 228.675781 159.515625 228.742188 158.992188 C 228.808594 158.46875 228.433594 158.042969 227.910156 158.042969 Z M 231.265625 159.941406 C 231.789062 159.941406 232.265625 159.515625 232.335938 158.992188 C 232.398438 158.46875 232.027344 158.042969 231.503906 158.042969 C 230.980469 158.042969 230.503906 158.46875 230.4375 158.992188 C 230.371094 159.515625 230.742188 159.941406 231.265625 159.941406 Z M 234.855469 159.941406 C 235.378906 159.941406 235.859375 159.515625 235.925781 158.992188 C 235.992188 158.46875 235.621094 158.042969 235.09375 158.042969 C 234.570312 158.042969 234.09375 158.46875 234.027344 158.992188 C 233.960938 159.515625 234.332031 159.941406 234.855469 159.941406 Z M 244.847656 163.929688 L 235.289062 163.929688 C 234.933594 163.929688 234.648438 164.21875 234.648438 164.570312 C 234.648438 164.925781 234.933594 165.210938 235.289062 165.210938 L 244.847656 165.210938 C 245.203125 165.210938 245.488281 164.925781 245.488281 164.570312 C 245.488281 164.21875 245.203125 163.929688 244.847656 163.929688 Z M 254.554688 155.675781 C 256.328125 155.675781 257.585938 157.113281 257.363281 158.882812 L 256.015625 169.574219 C 255.796875 171.347656 254.175781 172.78125 252.40625 172.78125 L 225.171875 172.78125 C 223.398438 172.78125 222.144531 171.347656 222.367188 169.574219 L 223.710938 158.882812 C 223.933594 157.113281 225.550781 155.675781 227.320312 155.675781 Z M 240.070312 99.960938 C 240.136719 99.4375 239.765625 99.011719 239.238281 99.011719 C 238.71875 99.011719 238.238281 99.4375 238.171875 99.960938 C 238.105469 100.484375 238.476562 100.910156 239 100.910156 C 239.523438 100.910156 240.003906 100.484375 240.070312 99.960938 Z M 273.929688 146.585938 C 273.929688 146.230469 273.640625 145.941406 273.289062 145.941406 L 270.011719 145.941406 C 269.65625 145.941406 269.371094 146.230469 269.371094 146.585938 C 269.371094 146.9375 269.65625 147.226562 270.011719 147.226562 L 273.289062 147.226562 C 273.640625 147.226562 273.929688 146.9375 273.929688 146.585938 Z M 269.230469 113.660156 C 269.582031 113.660156 269.871094 113.371094 269.871094 113.019531 C 269.871094 112.664062 269.582031 112.375 269.230469 112.375 L 259.679688 112.375 C 259.328125 112.375 259.039062 112.664062 259.039062 113.019531 C 259.039062 113.371094 259.328125 113.660156 259.679688 113.660156 Z M 267.371094 118.632812 L 244.136719 118.632812 C 243.191406 118.632812 242.332031 119.398438 242.214844 120.34375 L 241.507812 125.929688 C 241.390625 126.875 242.058594 127.640625 243.003906 127.640625 L 266.238281 127.640625 C 267.183594 127.640625 268.042969 126.875 268.164062 125.929688 L 268.863281 120.34375 C 268.984375 119.398438 268.3125 118.632812 267.371094 118.632812 Z M 257.347656 144.148438 L 260.625 144.148438 C 260.976562 144.148438 261.265625 143.859375 261.265625 143.503906 C 261.265625 143.148438 260.976562 142.863281 260.625 142.863281 L 257.347656 142.863281 C 256.992188 142.863281 256.703125 143.148438 256.703125 143.503906 C 256.703125 143.859375 256.992188 144.148438 257.347656 144.148438 Z M 262.957031 146.585938 C 262.957031 146.230469 262.671875 145.941406 262.316406 145.941406 L 256.957031 145.941406 C 256.605469 145.941406 256.316406 146.230469 256.316406 146.585938 C 256.316406 146.9375 256.605469 147.226562 256.957031 147.226562 L 262.316406 147.226562 C 262.671875 147.226562 262.957031 146.9375 262.957031 146.585938 Z M 251.867188 143.503906 C 251.867188 143.148438 251.578125 142.863281 251.226562 142.863281 L 245.503906 142.863281 C 245.148438 142.863281 244.863281 143.148438 244.863281 143.503906 C 244.863281 143.859375 245.148438 144.148438 245.503906 144.148438 L 251.226562 144.148438 C 251.578125 144.148438 251.867188 143.859375 251.867188 143.503906 Z M 249.035156 146.585938 C 249.035156 146.230469 248.746094 145.941406 248.394531 145.941406 L 245.113281 145.941406 C 244.761719 145.941406 244.472656 146.230469 244.472656 146.585938 C 244.472656 146.9375 244.761719 147.226562 245.113281 147.226562 L 248.394531 147.226562 C 248.746094 147.226562 249.035156 146.9375 249.035156 146.585938 Z M 238.929688 143.503906 C 238.929688 143.148438 238.644531 142.863281 238.289062 142.863281 L 231.734375 142.863281 C 231.378906 142.863281 231.089844 143.148438 231.089844 143.503906 C 231.089844 143.859375 231.378906 144.148438 231.734375 144.148438 L 238.289062 144.148438 C 238.644531 144.148438 238.929688 143.859375 238.929688 143.503906 Z M 235.925781 146.585938 C 235.925781 146.230469 235.636719 145.941406 235.28125 145.941406 L 231.347656 145.941406 C 230.992188 145.941406 230.707031 146.230469 230.707031 146.585938 C 230.707031 146.9375 230.992188 147.226562 231.347656 147.226562 L 235.28125 147.226562 C 235.636719 147.226562 235.925781 146.9375 235.925781 146.585938 Z M 242.492188 113.019531 C 242.492188 113.371094 242.78125 113.660156 243.132812 113.660156 L 255.246094 113.660156 C 255.601562 113.660156 255.886719 113.371094 255.886719 113.019531 C 255.886719 112.664062 255.601562 112.375 255.246094 112.375 L 243.132812 112.375 C 242.78125 112.375 242.492188 112.664062 242.492188 113.019531 Z M 269.757812 143.503906 C 269.757812 143.859375 270.042969 144.148438 270.398438 144.148438 L 276.121094 144.148438 C 276.472656 144.148438 276.761719 143.859375 276.761719 143.503906 C 276.761719 143.148438 276.472656 142.863281 276.121094 142.863281 L 270.398438 142.863281 C 270.042969 142.863281 269.757812 143.148438 269.757812 143.503906 Z M 275.136719 150.988281 L 228.238281 150.988281 C 226.46875 150.988281 225.214844 149.554688 225.4375 147.78125 L 230.859375 104.636719 L 284.167969 104.636719 L 284.9375 98.492188 L 278.742188 147.78125 C 278.523438 149.554688 276.90625 150.988281 275.136719 150.988281 Z M 346.945312 182.402344 L 340.472656 182.402344 C 340.121094 182.402344 339.832031 182.691406 339.832031 183.042969 C 339.832031 183.398438 340.121094 183.6875 340.472656 183.6875 L 346.945312 183.6875 C 347.296875 183.6875 347.585938 183.398438 347.585938 183.042969 C 347.585938 182.691406 347.296875 182.402344 346.945312 182.402344 Z M 350.105469 178.210938 L 341.003906 178.210938 C 340.644531 178.210938 340.359375 178.5 340.359375 178.851562 C 340.359375 179.207031 340.644531 179.492188 341.003906 179.492188 L 350.105469 179.492188 C 350.464844 179.492188 350.75 179.207031 350.75 178.851562 C 350.75 178.5 350.464844 178.210938 350.105469 178.210938 Z M 341.527344 175.304688 L 346.933594 175.304688 C 347.285156 175.304688 347.574219 175.015625 347.574219 174.664062 C 347.574219 174.308594 347.285156 174.023438 346.933594 174.023438 L 341.527344 174.023438 C 341.171875 174.023438 340.886719 174.308594 340.886719 174.664062 C 340.886719 175.015625 341.171875 175.304688 341.527344 175.304688 Z M 353.242188 126.6875 L 346.773438 126.6875 C 346.417969 126.6875 346.132812 126.972656 346.132812 127.328125 C 346.132812 127.683594 346.417969 127.96875 346.773438 127.96875 L 353.242188 127.96875 C 353.597656 127.96875 353.886719 127.683594 353.886719 127.328125 C 353.886719 126.972656 353.597656 126.6875 353.242188 126.6875 Z M 356.40625 122.496094 L 347.300781 122.496094 C 346.945312 122.496094 346.660156 122.78125 346.660156 123.136719 C 346.660156 123.492188 346.945312 123.78125 347.300781 123.78125 L 356.40625 123.78125 C 356.761719 123.78125 357.046875 123.492188 357.046875 123.136719 C 357.046875 122.78125 356.761719 122.496094 356.40625 122.496094 Z M 347.828125 118.304688 C 347.472656 118.304688 347.1875 118.59375 347.1875 118.945312 C 347.1875 119.300781 347.472656 119.585938 347.828125 119.585938 L 353.230469 119.585938 C 353.585938 119.585938 353.871094 119.300781 353.871094 118.945312 C 353.871094 118.59375 353.585938 118.304688 353.230469 118.304688 Z M 338.039062 104.636719 C 338.039062 104.28125 337.753906 103.992188 337.398438 103.992188 L 326.59375 103.992188 C 326.238281 103.992188 325.953125 104.28125 325.953125 104.636719 C 325.953125 104.992188 326.238281 105.277344 326.59375 105.277344 L 337.398438 105.277344 C 337.753906 105.277344 338.039062 104.992188 338.039062 104.636719 Z M 332.628906 113.019531 C 332.628906 112.664062 332.34375 112.375 331.988281 112.375 L 322.542969 112.375 C 322.191406 112.375 321.902344 112.664062 321.902344 113.019531 C 321.902344 113.371094 322.191406 113.660156 322.542969 113.660156 L 331.988281 113.660156 C 332.34375 113.660156 332.628906 113.371094 332.628906 113.019531 Z M 329.996094 133.96875 C 329.996094 133.617188 329.710938 133.328125 329.355469 133.328125 L 319.910156 133.328125 C 319.558594 133.328125 319.269531 133.617188 319.269531 133.96875 C 319.269531 134.324219 319.558594 134.609375 319.910156 134.609375 L 329.355469 134.609375 C 329.710938 134.609375 329.996094 134.324219 329.996094 133.96875 Z M 325.308594 138.160156 C 325.308594 137.804688 325.023438 137.519531 324.667969 137.519531 L 313.257812 137.519531 C 312.902344 137.519531 312.613281 137.804688 312.613281 138.160156 C 312.613281 138.515625 312.902344 138.800781 313.257812 138.800781 L 324.667969 138.800781 C 325.023438 138.800781 325.308594 138.515625 325.308594 138.160156 Z M 318.839844 142.351562 C 318.839844 141.996094 318.554688 141.707031 318.199219 141.707031 L 302.609375 141.707031 C 302.253906 141.707031 301.964844 141.996094 301.964844 142.351562 C 301.964844 142.707031 302.253906 142.992188 302.609375 142.992188 L 318.199219 142.992188 C 318.554688 142.992188 318.839844 142.707031 318.839844 142.351562 Z M 301.984375 104.636719 C 301.984375 104.28125 301.699219 103.992188 301.34375 103.992188 L 297.070312 103.992188 C 296.714844 103.992188 296.425781 104.28125 296.425781 104.636719 C 296.425781 104.992188 296.714844 105.277344 297.070312 105.277344 L 301.34375 105.277344 C 301.699219 105.277344 301.984375 104.992188 301.984375 104.636719 Z M 301.457031 108.828125 C 301.457031 108.472656 301.171875 108.183594 300.816406 108.183594 L 296.542969 108.183594 C 296.1875 108.183594 295.902344 108.472656 295.902344 108.828125 C 295.902344 109.179688 296.1875 109.46875 296.542969 109.46875 L 300.816406 109.46875 C 301.171875 109.46875 301.457031 109.179688 301.457031 108.828125 Z M 300.933594 113.019531 C 300.933594 112.664062 300.644531 112.375 300.289062 112.375 L 296.015625 112.375 C 295.660156 112.375 295.375 112.664062 295.375 113.019531 C 295.375 113.371094 295.660156 113.660156 296.015625 113.660156 L 300.289062 113.660156 C 300.644531 113.660156 300.933594 113.371094 300.933594 113.019531 Z M 300.40625 117.207031 C 300.40625 116.855469 300.117188 116.566406 299.765625 116.566406 L 295.488281 116.566406 C 295.132812 116.566406 294.847656 116.855469 294.847656 117.207031 C 294.847656 117.5625 295.132812 117.847656 295.488281 117.847656 L 299.765625 117.847656 C 300.117188 117.847656 300.40625 117.5625 300.40625 117.207031 Z M 299.878906 121.398438 C 299.878906 121.042969 299.589844 120.757812 299.238281 120.757812 L 294.960938 120.757812 C 294.609375 120.757812 294.320312 121.042969 294.320312 121.398438 C 294.320312 121.753906 294.609375 122.039062 294.960938 122.039062 L 299.238281 122.039062 C 299.589844 122.039062 299.878906 121.753906 299.878906 121.398438 Z M 298.824219 129.78125 C 298.824219 129.425781 298.539062 129.136719 298.183594 129.136719 L 293.910156 129.136719 C 293.554688 129.136719 293.269531 129.425781 293.269531 129.78125 C 293.269531 130.132812 293.554688 130.421875 293.910156 130.421875 L 298.183594 130.421875 C 298.539062 130.421875 298.824219 130.132812 298.824219 129.78125 Z M 298.296875 133.96875 C 298.296875 133.617188 298.011719 133.328125 297.65625 133.328125 L 293.378906 133.328125 C 293.027344 133.328125 292.738281 133.617188 292.738281 133.96875 C 292.738281 134.324219 293.027344 134.609375 293.378906 134.609375 L 297.65625 134.609375 C 298.011719 134.609375 298.296875 134.324219 298.296875 133.96875 Z M 297.773438 138.160156 C 297.773438 137.804688 297.484375 137.519531 297.132812 137.519531 L 292.855469 137.519531 C 292.5 137.519531 292.210938 137.804688 292.210938 138.160156 C 292.210938 138.515625 292.5 138.800781 292.855469 138.800781 L 297.132812 138.800781 C 297.484375 138.800781 297.773438 138.515625 297.773438 138.160156 Z M 297.246094 142.351562 C 297.246094 141.996094 296.957031 141.707031 296.605469 141.707031 L 292.328125 141.707031 C 291.976562 141.707031 291.6875 141.996094 291.6875 142.351562 C 291.6875 142.707031 291.976562 142.992188 292.328125 142.992188 L 296.605469 142.992188 C 296.957031 142.992188 297.246094 142.707031 297.246094 142.351562 Z M 302.492188 138.160156 C 302.492188 138.515625 302.78125 138.800781 303.132812 138.800781 L 309.601562 138.800781 C 309.957031 138.800781 310.246094 138.515625 310.246094 138.160156 C 310.246094 137.804688 309.957031 137.519531 309.601562 137.519531 L 303.132812 137.519531 C 302.78125 137.519531 302.492188 137.804688 302.492188 138.160156 Z M 303.019531 133.96875 C 303.019531 134.324219 303.308594 134.609375 303.660156 134.609375 L 316.261719 134.609375 C 316.613281 134.609375 316.902344 134.324219 316.902344 133.96875 C 316.902344 133.617188 316.613281 133.328125 316.261719 133.328125 L 303.660156 133.328125 C 303.308594 133.328125 303.019531 133.617188 303.019531 133.96875 Z M 303.546875 129.78125 C 303.546875 130.132812 303.832031 130.421875 304.1875 130.421875 L 309.589844 130.421875 C 309.945312 130.421875 310.230469 130.132812 310.230469 129.78125 C 310.230469 129.425781 309.945312 129.136719 309.589844 129.136719 L 304.1875 129.136719 C 303.832031 129.136719 303.546875 129.425781 303.546875 129.78125 Z M 304.601562 121.398438 C 304.601562 121.753906 304.886719 122.039062 305.242188 122.039062 L 313.035156 122.039062 C 313.390625 122.039062 313.675781 121.753906 313.675781 121.398438 C 313.675781 121.042969 313.390625 120.757812 313.035156 120.757812 L 305.242188 120.757812 C 304.886719 120.757812 304.601562 121.042969 304.601562 121.398438 Z M 305.125 117.207031 C 305.125 117.5625 305.414062 117.847656 305.765625 117.847656 L 312.238281 117.847656 C 312.59375 117.847656 312.878906 117.5625 312.878906 117.207031 C 312.878906 116.855469 312.59375 116.566406 312.238281 116.566406 L 305.765625 116.566406 C 305.414062 116.566406 305.125 116.855469 305.125 117.207031 Z M 305.652344 113.019531 C 305.652344 113.371094 305.941406 113.660156 306.292969 113.660156 L 318.894531 113.660156 C 319.246094 113.660156 319.535156 113.371094 319.535156 113.019531 C 319.535156 112.664062 319.246094 112.375 318.894531 112.375 L 306.292969 112.375 C 305.941406 112.375 305.652344 112.664062 305.652344 113.019531 Z M 306.179688 108.828125 C 306.179688 109.179688 306.464844 109.46875 306.820312 109.46875 L 312.222656 109.46875 C 312.578125 109.46875 312.867188 109.179688 312.867188 108.828125 C 312.867188 108.472656 312.578125 108.183594 312.222656 108.183594 L 306.820312 108.183594 C 306.464844 108.183594 306.179688 108.472656 306.179688 108.828125 Z M 306.707031 104.636719 C 306.707031 104.992188 306.992188 105.277344 307.347656 105.277344 L 322.941406 105.277344 C 323.292969 105.277344 323.582031 104.992188 323.582031 104.636719 C 323.582031 104.28125 323.292969 103.992188 322.941406 103.992188 L 307.347656 103.992188 C 306.992188 103.992188 306.707031 104.28125 306.707031 104.636719 Z M 325.925781 109.46875 C 326.28125 109.46875 326.566406 109.179688 326.566406 108.828125 C 326.566406 108.472656 326.28125 108.183594 325.925781 108.183594 L 315.117188 108.183594 C 314.761719 108.183594 314.472656 108.472656 314.472656 108.828125 C 314.472656 109.179688 314.761719 109.46875 315.117188 109.46875 Z M 320.816406 117.207031 C 320.816406 116.855469 320.527344 116.566406 320.175781 116.566406 L 315.890625 116.566406 C 315.535156 116.566406 315.25 116.855469 315.25 117.207031 C 315.25 117.5625 315.535156 117.847656 315.890625 117.847656 L 320.175781 117.847656 C 320.527344 117.847656 320.816406 117.5625 320.816406 117.207031 Z M 323.289062 129.136719 L 312.480469 129.136719 C 312.128906 129.136719 311.839844 129.425781 311.839844 129.78125 C 311.839844 130.132812 312.128906 130.421875 312.480469 130.421875 L 323.289062 130.421875 C 323.648438 130.421875 323.933594 130.132812 323.933594 129.78125 C 323.933594 129.425781 323.648438 129.136719 323.289062 129.136719 Z M 327.015625 122.039062 C 327.367188 122.039062 327.65625 121.753906 327.65625 121.398438 C 327.65625 121.042969 327.367188 120.757812 327.015625 120.757812 L 315.839844 120.757812 C 315.484375 120.757812 315.199219 121.042969 315.199219 121.398438 C 315.199219 121.753906 315.484375 122.039062 315.839844 122.039062 Z M 340.25 147.78125 C 340.027344 149.554688 338.410156 150.988281 336.640625 150.988281 L 289.746094 150.988281 C 287.972656 150.988281 286.71875 149.554688 286.941406 147.78125 L 293.136719 98.492188 C 293.359375 96.722656 294.976562 95.285156 296.746094 95.285156 L 343.640625 95.285156 C 345.410156 95.285156 346.667969 96.722656 346.445312 98.492188 Z M 172.601562 115.015625 L 172.007812 110.09375 C 171.429688 105.316406 172.839844 100.800781 175.542969 97.316406 L 149.269531 97.316406 L 149.269531 114.941406 C 149.269531 114.96875 149.261719 114.988281 149.261719 115.015625 Z M 143.886719 96.726562 L 137.53125 96.726562 L 137.53125 112.097656 L 143.886719 112.097656 Z M 134.308594 97.316406 L 134.308594 94.800781 L 127.953125 94.800781 L 127.953125 112.097656 L 134.308594 112.097656 Z M 124.726562 99.03125 L 118.375 99.03125 L 118.375 112.097656 L 124.726562 112.097656 Z M 115.148438 106.753906 L 108.796875 106.753906 L 108.796875 112.097656 L 115.148438 112.097656 Z M 105.570312 104.035156 L 99.21875 104.035156 L 99.21875 112.097656 L 105.570312 112.097656 Z M 170.496094 133.996094 L 73.78125 133.996094 C 73.765625 133.78125 73.75 133.566406 73.738281 133.351562 L 170.675781 133.351562 L 172.433594 127.15625 C 173.191406 124.484375 173.410156 121.695312 173.078125 118.9375 L 172.679688 115.65625 L 149.183594 115.65625 C 148.855469 117.082031 147.585938 118.148438 146.0625 118.148438 L 98.722656 118.148438 C 97.195312 118.148438 95.925781 117.082031 95.597656 115.65625 L 73.96875 115.65625 C 73.988281 115.441406 74.015625 115.226562 74.039062 115.015625 L 95.523438 115.015625 C 95.523438 114.988281 95.515625 114.96875 95.515625 114.941406 L 95.515625 97.316406 L 77.386719 97.316406 C 77.445312 97.101562 77.515625 96.890625 77.578125 96.675781 L 95.515625 96.675781 L 95.515625 90.109375 C 95.515625 88.335938 96.949219 86.902344 98.722656 86.902344 L 146.0625 86.902344 C 147.832031 86.902344 149.269531 88.335938 149.269531 90.109375 L 149.269531 96.675781 L 176.066406 96.675781 C 179.246094 92.953125 183.976562 90.554688 189.324219 90.554688 C 194.605469 90.554688 199.375 92.914062 202.589844 96.675781 L 219.476562 96.675781 L 219.410156 97.316406 L 203.113281 97.316406 C 205.050781 99.8125 206.332031 102.859375 206.675781 106.210938 L 206.851562 107.90625 L 210.503906 115.015625 L 217.445312 115.015625 L 217.375 115.65625 L 210.738281 115.65625 C 210.753906 116.0625 210.5 116.457031 210.078125 116.578125 L 208.644531 117 C 208.226562 117.121094 207.953125 117.515625 207.984375 117.949219 C 208.207031 120.804688 208.847656 130.980469 206.851562 132.054688 C 204.527344 133.308594 193.421875 131.0625 193.421875 131.0625 C 193.214844 131.820312 193.039062 132.582031 192.894531 133.351562 L 215.410156 133.351562 L 215.34375 133.996094 L 192.785156 133.996094 C 192.390625 136.375 192.292969 138.792969 192.5 141.191406 C 190.011719 140.34375 186.6875 139.039062 181.515625 137.988281 C 176.558594 136.980469 171.78125 138.117188 169.070312 139.023438 Z M 155.953125 185.640625 C 155.164062 180.660156 154.121094 175.519531 152.824219 170.671875 C 152.800781 170.585938 152.78125 170.503906 152.757812 170.421875 C 152.292969 168.707031 151.796875 167.027344 151.265625 165.414062 C 149.488281 160.011719 151.175781 154.523438 154.855469 150.972656 C 154.675781 151.054688 154.496094 151.125 154.320312 151.210938 C 154.019531 151.363281 153.734375 151.523438 153.453125 151.691406 L 76.222656 151.691406 C 76.269531 151.90625 76.3125 152.117188 76.355469 152.332031 L 152.464844 152.332031 C 146.917969 156.3125 145.128906 163.9375 148.558594 170.03125 L 81.273438 170.03125 C 81.347656 170.242188 81.414062 170.460938 81.488281 170.671875 L 148.917969 170.671875 Z M 216.105469 280.472656 C 218.722656 280.472656 221.34375 280.328125 223.972656 280.0625 L 207.191406 280.0625 C 210.152344 280.324219 213.125 280.472656 216.105469 280.472656 Z M 180.15625 261.746094 C 179.535156 261.746094 178.929688 261.738281 178.332031 261.722656 L 154.292969 261.722656 C 154.644531 261.941406 155.003906 262.148438 155.355469 262.367188 L 270.691406 262.367188 C 271.023438 262.152344 271.351562 261.9375 271.679688 261.722656 L 180.9375 261.722656 C 180.675781 261.726562 180.425781 261.746094 180.15625 261.746094 Z M 154.695312 243.382812 L 129.976562 243.382812 C 130.210938 243.597656 130.449219 243.8125 130.683594 244.027344 L 154.730469 244.027344 C 154.71875 243.8125 154.707031 243.597656 154.695312 243.382812 Z M 208.878906 244.027344 L 294.234375 244.027344 C 294.464844 243.8125 294.695312 243.597656 294.925781 243.382812 L 209.105469 243.382812 C 209.03125 243.59375 208.957031 243.804688 208.878906 244.027344 Z M 155.199219 225.046875 L 112.488281 225.046875 C 112.667969 225.261719 112.851562 225.472656 113.03125 225.6875 L 155.136719 225.6875 C 155.15625 225.472656 155.175781 225.257812 155.199219 225.046875 Z M 157.863281 206.707031 L 99.117188 206.707031 C 99.253906 206.921875 99.394531 207.132812 99.53125 207.347656 L 157.863281 207.347656 C 157.863281 207.140625 157.863281 206.925781 157.863281 206.707031 Z M 256.695312 215.90625 C 258.199219 216.148438 259.675781 216.382812 261.105469 216.601562 L 260.945312 216.347656 L 257.136719 215.539062 Z M 290.222656 225.046875 L 299.878906 225.046875 L 296.824219 222.917969 L 291.359375 224.164062 Z M 216.160156 188.367188 L 338.496094 188.367188 C 338.367188 188.582031 338.246094 188.796875 338.121094 189.011719 L 216.484375 189.011719 C 220.546875 196.882812 224.273438 203.425781 226.519531 206.707031 L 326.722656 206.707031 C 326.570312 206.921875 326.421875 207.132812 326.269531 207.347656 L 226.972656 207.347656 C 227.554688 208.160156 228.015625 208.691406 228.3125 208.886719 C 230.695312 210.476562 236.585938 212.070312 243.464844 213.5 L 254.378906 209.378906 C 255.496094 208.960938 256.742188 209.105469 257.730469 209.765625 L 263.125 213.367188 L 265.375 217.238281 C 269.582031 217.84375 273.042969 218.300781 274.96875 218.546875 L 280.945312 218.320312 L 293.761719 213.894531 C 294.910156 213.5 296.183594 213.679688 297.175781 214.386719 L 302.578125 218.21875 L 306.292969 225.046875 L 312.488281 225.046875 C 312.304688 225.257812 312.121094 225.476562 311.9375 225.6875 L 306.640625 225.6875 L 306.765625 225.917969 C 307.003906 226.355469 306.824219 226.90625 306.371094 227.113281 C 305.46875 227.050781 304.433594 226.601562 303.589844 225.972656 L 303.808594 227.445312 C 303.910156 228.121094 303.355469 228.71875 302.679688 228.667969 C 301.617188 228.589844 300.746094 227.804688 300.5625 226.757812 L 300.375 225.6875 L 289.394531 225.6875 L 286.769531 227.71875 C 285.53125 228.675781 284.089844 229.3125 282.570312 229.589844 C 281.578125 229.773438 280.558594 229.742188 279.5625 229.605469 L 273.5 228.769531 L 228.386719 228.449219 C 222.9375 228.222656 218.925781 227.1875 215.875 225.6875 L 204.367188 225.6875 C 204.335938 225.585938 204.304688 225.480469 204.273438 225.378906 C 204.246094 225.292969 204.222656 225.207031 204.199219 225.117188 C 204.191406 225.097656 204.183594 225.070312 204.175781 225.046875 C 203.210938 221.773438 202.519531 218.382812 202.519531 215.386719 C 202.519531 213.679688 202.773438 211.878906 203.183594 210.015625 C 203.289062 210.035156 203.394531 210.054688 203.503906 210.074219 L 196.734375 197.011719 C 196.378906 197.085938 196.015625 197.128906 195.644531 197.128906 C 192.277344 197.128906 188.957031 193.972656 186.460938 189.011719 L 89.171875 189.011719 C 89.066406 188.796875 88.960938 188.582031 88.855469 188.367188 L 186.148438 188.367188 C 184.316406 184.503906 182.972656 179.648438 182.453125 174.363281 C 182.042969 170.125 182.214844 166.164062 182.851562 162.765625 C 182.804688 158.324219 184 154.445312 187.3125 152.902344 C 187.578125 152.777344 187.847656 152.675781 188.113281 152.574219 C 189.058594 151.941406 190.089844 151.597656 191.199219 151.597656 C 191.648438 151.597656 192.097656 151.660156 192.542969 151.769531 C 196.988281 151.867188 200.9375 154.703125 202.808594 159.414062 C 206.550781 168.828125 211.546875 179.410156 216.152344 188.367188 Z M 211.277344 170.671875 L 211.34375 170.03125 L 208.78125 170.03125 C 208.851562 170.242188 208.925781 170.460938 208.996094 170.671875 Z M 213.378906 151.691406 L 200.816406 151.691406 C 200.890625 151.824219 200.964844 151.953125 201.03125 152.085938 C 201.074219 152.167969 201.117188 152.25 201.15625 152.332031 L 213.308594 152.332031 Z M 363.863281 78.335938 L 85.160156 78.335938 C 85.042969 78.550781 84.929688 78.765625 84.816406 78.980469 L 364.019531 78.980469 C 363.96875 78.765625 363.917969 78.550781 363.863281 78.335938 " fill-opacity="1" fill-rule="nonzero"/></g><g clip-path="url(#8d892042e2)"><path fill="#181818" d="M 294.046875 208.683594 L 275.980469 208.742188 L 266.949219 208.769531 L 257.914062 208.859375 L 257.914062 209.152344 L 266.949219 209.238281 L 275.980469 209.269531 L 294.046875 209.324219 L 312.113281 209.257812 L 321.144531 209.222656 L 330.179688 209.128906 L 330.179688 208.882812 L 321.144531 208.789062 L 312.113281 208.753906 Z M 286.46875 66.664062 L 279.945312 66.664062 L 279.945312 67.304688 L 286.46875 67.304688 Z M 289.871094 65.164062 L 289.871094 64.523438 L 285.714844 64.523438 L 285.714844 65.164062 Z M 284.097656 64.523438 L 279.945312 64.523438 L 279.945312 65.164062 L 284.097656 65.164062 Z M 289.871094 62.386719 L 279.945312 62.386719 L 279.945312 63.027344 L 289.871094 63.027344 Z M 294.328125 17.726562 C 295.253906 17.726562 296.007812 16.976562 296.007812 16.046875 C 296.007812 15.125 295.253906 14.371094 294.328125 14.371094 C 293.402344 14.371094 292.652344 15.125 292.652344 16.046875 C 292.652344 16.976562 293.402344 17.726562 294.328125 17.726562 Z M 203.148438 17.726562 C 204.074219 17.726562 204.828125 16.976562 204.828125 16.046875 C 204.828125 15.125 204.074219 14.371094 203.148438 14.371094 C 202.21875 14.371094 201.46875 15.125 201.46875 16.046875 C 201.46875 16.976562 202.21875 17.726562 203.148438 17.726562 Z M 137.605469 68.054688 L 131.078125 68.054688 L 131.078125 68.695312 L 137.605469 68.695312 Z M 141.007812 66.554688 L 141.007812 65.914062 L 136.851562 65.914062 L 136.851562 66.554688 Z M 135.234375 65.914062 L 131.078125 65.914062 L 131.078125 66.554688 L 135.234375 66.554688 Z M 141.007812 63.777344 L 131.078125 63.777344 L 131.078125 64.417969 L 141.007812 64.417969 Z M 114.007812 17.726562 C 114.933594 17.726562 115.683594 16.976562 115.683594 16.046875 C 115.683594 15.125 114.933594 14.371094 114.007812 14.371094 C 113.082031 14.371094 112.328125 15.125 112.328125 16.046875 C 112.328125 16.976562 113.082031 17.726562 114.007812 17.726562 Z M 102.074219 115.175781 L 102.714844 115.175781 L 102.714844 114.492188 L 111.652344 114.492188 L 111.652344 115.175781 L 112.292969 115.175781 L 112.292969 114.492188 L 121.230469 114.492188 L 121.230469 115.175781 L 121.871094 115.175781 L 121.871094 114.492188 L 130.808594 114.492188 L 130.808594 115.175781 L 131.449219 115.175781 L 131.449219 114.492188 L 140.386719 114.492188 L 140.386719 115.175781 L 141.027344 115.175781 L 141.027344 114.492188 L 143.949219 114.492188 L 143.949219 113.851562 L 141.027344 113.851562 L 141.027344 113.167969 L 140.386719 113.167969 L 140.386719 113.851562 L 131.449219 113.851562 L 131.449219 113.167969 L 130.808594 113.167969 L 130.808594 113.851562 L 121.871094 113.851562 L 121.871094 113.167969 L 121.230469 113.167969 L 121.230469 113.851562 L 112.292969 113.851562 L 112.292969 113.167969 L 111.652344 113.167969 L 111.652344 113.851562 L 102.714844 113.851562 L 102.714844 113.167969 L 102.074219 113.167969 L 102.074219 113.851562 L 99.21875 113.851562 L 99.21875 114.492188 L 102.074219 114.492188 Z M 310.308594 90.554688 C 310.308594 90.203125 310.019531 89.914062 309.667969 89.914062 L 226.800781 89.914062 C 226.445312 89.914062 226.15625 90.203125 226.15625 90.554688 C 226.15625 90.914062 226.445312 91.199219 226.800781 91.199219 L 309.667969 91.199219 C 310.019531 91.199219 310.308594 90.914062 310.308594 90.554688 Z M 291.570312 181.777344 L 287.292969 181.777344 C 286.9375 181.777344 286.652344 182.066406 286.652344 182.421875 C 286.652344 182.777344 286.9375 183.0625 287.292969 183.0625 L 291.570312 183.0625 C 291.921875 183.0625 292.210938 182.777344 292.210938 182.421875 C 292.210938 182.066406 291.921875 181.777344 291.570312 181.777344 Z M 292.738281 178.230469 C 292.738281 177.875 292.449219 177.589844 292.09375 177.589844 L 287.816406 177.589844 C 287.464844 177.589844 287.175781 177.875 287.175781 178.230469 C 287.175781 178.585938 287.464844 178.871094 287.816406 178.871094 L 292.09375 178.871094 C 292.449219 178.871094 292.738281 178.585938 292.738281 178.230469 Z M 293.789062 169.847656 C 293.789062 169.496094 293.503906 169.207031 293.148438 169.207031 L 288.871094 169.207031 C 288.515625 169.207031 288.230469 169.496094 288.230469 169.847656 C 288.230469 170.203125 288.515625 170.488281 288.871094 170.488281 L 293.148438 170.488281 C 293.503906 170.488281 293.789062 170.203125 293.789062 169.847656 Z M 294.316406 165.660156 C 294.316406 165.304688 294.027344 165.015625 293.671875 165.015625 L 289.398438 165.015625 C 289.042969 165.015625 288.757812 165.304688 288.757812 165.660156 C 288.757812 166.011719 289.042969 166.300781 289.398438 166.300781 L 293.671875 166.300781 C 294.027344 166.300781 294.316406 166.011719 294.316406 165.660156 Z M 294.84375 161.46875 C 294.84375 161.113281 294.554688 160.828125 294.203125 160.828125 L 289.925781 160.828125 C 289.570312 160.828125 289.285156 161.113281 289.285156 161.46875 C 289.285156 161.824219 289.570312 162.109375 289.925781 162.109375 L 294.203125 162.109375 C 294.554688 162.109375 294.84375 161.824219 294.84375 161.46875 Z M 234.027344 158.992188 C 233.960938 159.515625 234.332031 159.941406 234.855469 159.941406 C 235.378906 159.941406 235.859375 159.515625 235.925781 158.992188 C 235.992188 158.46875 235.621094 158.042969 235.09375 158.042969 C 234.570312 158.042969 234.09375 158.46875 234.027344 158.992188 Z M 241.765625 99.960938 C 241.699219 100.484375 242.070312 100.910156 242.59375 100.910156 C 243.117188 100.910156 243.597656 100.484375 243.660156 99.960938 C 243.726562 99.4375 243.355469 99.011719 242.832031 99.011719 C 242.308594 99.011719 241.828125 99.4375 241.765625 99.960938 Z M 251.257812 122.496094 C 250.90625 122.496094 250.617188 122.78125 250.617188 123.136719 C 250.617188 123.492188 250.90625 123.78125 251.257812 123.78125 L 259.117188 123.78125 C 259.472656 123.78125 259.757812 123.492188 259.757812 123.136719 C 259.757812 122.78125 259.472656 122.496094 259.117188 122.496094 Z M 297.246094 142.351562 C 297.246094 141.996094 296.957031 141.707031 296.605469 141.707031 L 292.328125 141.707031 C 291.976562 141.707031 291.6875 141.996094 291.6875 142.351562 C 291.6875 142.707031 291.976562 142.992188 292.328125 142.992188 L 296.605469 142.992188 C 296.957031 142.992188 297.246094 142.707031 297.246094 142.351562 Z M 297.773438 138.160156 C 297.773438 137.804688 297.484375 137.519531 297.132812 137.519531 L 292.855469 137.519531 C 292.5 137.519531 292.210938 137.804688 292.210938 138.160156 C 292.210938 138.515625 292.5 138.800781 292.855469 138.800781 L 297.132812 138.800781 C 297.484375 138.800781 297.773438 138.515625 297.773438 138.160156 Z M 298.296875 133.96875 C 298.296875 133.617188 298.011719 133.328125 297.65625 133.328125 L 293.378906 133.328125 C 293.027344 133.328125 292.738281 133.617188 292.738281 133.96875 C 292.738281 134.324219 293.027344 134.609375 293.378906 134.609375 L 297.65625 134.609375 C 298.011719 134.609375 298.296875 134.324219 298.296875 133.96875 Z M 298.824219 129.78125 C 298.824219 129.425781 298.539062 129.136719 298.183594 129.136719 L 293.910156 129.136719 C 293.554688 129.136719 293.269531 129.425781 293.269531 129.78125 C 293.269531 130.132812 293.554688 130.421875 293.910156 130.421875 L 298.183594 130.421875 C 298.539062 130.421875 298.824219 130.132812 298.824219 129.78125 Z M 299.878906 121.398438 C 299.878906 121.042969 299.589844 120.757812 299.238281 120.757812 L 294.960938 120.757812 C 294.609375 120.757812 294.320312 121.042969 294.320312 121.398438 C 294.320312 121.753906 294.609375 122.039062 294.960938 122.039062 L 299.238281 122.039062 C 299.589844 122.039062 299.878906 121.753906 299.878906 121.398438 Z M 300.40625 117.207031 C 300.40625 116.855469 300.117188 116.566406 299.765625 116.566406 L 295.488281 116.566406 C 295.132812 116.566406 294.847656 116.855469 294.847656 117.207031 C 294.847656 117.5625 295.132812 117.847656 295.488281 117.847656 L 299.765625 117.847656 C 300.117188 117.847656 300.40625 117.5625 300.40625 117.207031 Z M 300.933594 113.019531 C 300.933594 112.664062 300.644531 112.375 300.289062 112.375 L 296.015625 112.375 C 295.660156 112.375 295.375 112.664062 295.375 113.019531 C 295.375 113.371094 295.660156 113.660156 296.015625 113.660156 L 300.289062 113.660156 C 300.644531 113.660156 300.933594 113.371094 300.933594 113.019531 Z M 301.457031 108.828125 C 301.457031 108.472656 301.171875 108.183594 300.816406 108.183594 L 296.542969 108.183594 C 296.1875 108.183594 295.902344 108.472656 295.902344 108.828125 C 295.902344 109.179688 296.1875 109.46875 296.542969 109.46875 L 300.816406 109.46875 C 301.171875 109.46875 301.457031 109.179688 301.457031 108.828125 Z M 301.984375 104.636719 C 301.984375 104.28125 301.699219 103.992188 301.34375 103.992188 L 297.070312 103.992188 C 296.714844 103.992188 296.425781 104.28125 296.425781 104.636719 C 296.425781 104.992188 296.714844 105.277344 297.070312 105.277344 L 301.34375 105.277344 C 301.699219 105.277344 301.984375 104.992188 301.984375 104.636719 Z M 203.707031 107.644531 L 206.726562 107.492188 C 206.875 105.734375 207.382812 104.113281 208.214844 103.703125 C 207.328125 103.609375 206.464844 103.636719 205.808594 103.921875 C 205.765625 101.699219 204.886719 100.511719 204.335938 99.117188 C 204.324219 100.714844 204.761719 100.222656 204.59375 102.363281 C 204.5 103.550781 204.742188 104.769531 204.464844 105.929688 C 204.316406 106.542969 204.03125 107.101562 203.707031 107.644531 Z M 207.371094 107.460938 L 209.882812 107.335938 C 209.691406 105.417969 209.078125 104.242188 208.632812 104.242188 C 208.175781 104.242188 207.542969 105.46875 207.371094 107.460938 Z M 209.929688 107.976562 L 207.328125 108.105469 C 207.320312 108.253906 207.320312 108.410156 207.320312 108.566406 C 207.320312 111.203125 208.097656 112.886719 208.632812 112.886719 C 209.164062 112.886719 209.945312 111.203125 209.945312 108.566406 C 209.945312 108.363281 209.9375 108.167969 209.929688 107.976562 Z M 149.449219 133.757812 C 148.753906 129.171875 150.089844 124.316406 153.039062 120.738281 C 154.121094 119.425781 155.457031 118.179688 155.789062 116.511719 C 156.128906 114.792969 155.316406 113.085938 154.941406 111.375 C 154.234375 108.109375 155.242188 104.515625 157.550781 102.097656 C 159.324219 100.242188 161.777344 99.066406 163.273438 96.980469 C 164.527344 95.234375 164.96875 93.054688 165.828125 91.085938 C 168.242188 85.5625 174.34375 81.886719 180.351562 82.332031 C 182.019531 80.253906 185.253906 79.28125 187.878906 79.742188 C 190.503906 80.207031 192.839844 81.695312 194.882812 83.410156 C 201.308594 82.425781 209.386719 88.558594 211.632812 104.464844 C 211.027344 104.285156 210.1875 104.042969 209.296875 103.867188 C 210.136719 104.582031 210.585938 106.625 210.585938 108.566406 C 210.585938 110.972656 209.898438 113.53125 208.632812 113.53125 C 207.363281 113.53125 206.679688 110.972656 206.679688 108.566406 C 206.679688 108.421875 206.679688 108.28125 206.683594 108.136719 L 205.230469 108.210938 C 205.511719 108.359375 205.71875 108.90625 205.71875 109.566406 C 205.71875 110.335938 205.433594 110.964844 205.082031 110.964844 C 204.730469 110.964844 204.445312 110.335938 204.445312 109.566406 C 204.445312 108.925781 204.640625 108.394531 204.90625 108.226562 L 203.296875 108.304688 C 202.917969 108.90625 202.53125 109.503906 202.269531 110.160156 C 201.082031 113.167969 202.765625 116.582031 202.292969 119.785156 C 201.996094 121.796875 200.871094 123.578125 200.261719 125.519531 C 199.398438 128.269531 200.003906 132.074219 201.269531 134.664062 L 192.371094 134.664062 C 191.816406 132.570312 191.097656 130.667969 191.019531 128.5 C 190.425781 130.765625 190.167969 132.835938 189.96875 135.171875 C 188.875 132.214844 188.148438 129.339844 188.078125 126.191406 C 187.765625 128.710938 187.65625 131.234375 187.34375 133.757812 Z M 209.597656 220.320312 C 210.582031 221.554688 211.660156 222.726562 212.84375 223.792969 C 214.019531 224.859375 215.324219 225.804688 216.765625 226.53125 C 217.488281 226.878906 218.253906 227.160156 219.039062 227.359375 C 219.84375 227.535156 220.617188 227.621094 221.398438 227.730469 C 222.960938 227.925781 224.523438 228.125 226.089844 228.261719 C 229.226562 228.5625 232.367188 228.757812 235.515625 228.816406 C 235.59375 228.816406 235.660156 228.753906 235.664062 228.675781 C 235.667969 228.597656 235.605469 228.527344 235.527344 228.523438 C 233.960938 228.4375 232.394531 228.308594 230.832031 228.164062 C 229.269531 228.03125 227.707031 227.878906 226.152344 227.699219 C 224.59375 227.515625 223.035156 227.335938 221.480469 227.121094 C 220.707031 227.007812 219.917969 226.914062 219.1875 226.746094 C 218.449219 226.558594 217.734375 226.289062 217.046875 225.957031 C 214.28125 224.585938 212.011719 222.351562 210.015625 219.976562 C 209.011719 218.78125 208.082031 217.519531 207.210938 216.222656 C 206.328125 214.929688 205.496094 213.597656 204.753906 212.222656 L 204.75 212.21875 C 204.71875 212.160156 204.648438 212.136719 204.589844 212.167969 C 204.527344 212.199219 204.503906 212.269531 204.53125 212.332031 C 205.9375 215.160156 207.621094 217.84375 209.597656 220.320312 Z M 188.128906 181.546875 C 187.773438 181.335938 187.445312 181.085938 187.128906 180.820312 C 186.816406 180.546875 186.527344 180.238281 186.242188 179.914062 C 186.207031 179.878906 186.148438 179.863281 186.101562 179.882812 C 186.039062 179.90625 186.003906 179.980469 186.03125 180.042969 C 186.363281 180.882812 187.015625 181.605469 187.789062 182.09375 C 188.179688 182.335938 188.59375 182.53125 189.023438 182.667969 C 189.386719 182.785156 189.753906 182.863281 190.128906 182.910156 C 191.363281 185.722656 192.648438 188.515625 193.9375 191.304688 C 195.410156 194.40625 196.894531 197.503906 198.417969 200.582031 C 199.941406 203.65625 201.5 206.714844 203.128906 209.742188 C 203.164062 209.8125 203.25 209.839844 203.316406 209.804688 C 203.390625 209.769531 203.421875 209.683594 203.386719 209.609375 C 202.625 208.070312 201.886719 206.523438 201.152344 204.976562 L 198.929688 200.332031 L 194.515625 191.03125 C 193.042969 187.933594 191.605469 184.816406 190.183594 181.699219 C 189.472656 180.136719 188.777344 178.570312 188.105469 176.996094 C 187.4375 175.421875 186.75 173.839844 186.253906 172.214844 L 186.25 172.207031 C 186.234375 172.144531 186.164062 172.109375 186.101562 172.125 C 186.035156 172.144531 185.996094 172.210938 186.019531 172.277344 C 186.96875 175.601562 188.34375 178.757812 189.6875 181.917969 C 189.765625 182.09375 189.847656 182.265625 189.921875 182.441406 C 189.691406 182.34375 189.457031 182.246094 189.230469 182.140625 C 188.851562 181.957031 188.476562 181.769531 188.128906 181.546875 Z M 204.964844 120.644531 C 205.207031 120.800781 205.480469 120.898438 205.757812 120.964844 C 206.039062 121.019531 206.320312 121.046875 206.601562 121.019531 C 206.742188 121.011719 206.878906 120.984375 207.015625 120.964844 C 207.152344 120.921875 207.285156 120.886719 207.410156 120.835938 C 207.453125 120.816406 207.480469 120.78125 207.488281 120.738281 C 207.5 120.667969 207.453125 120.601562 207.382812 120.59375 C 206.851562 120.507812 206.371094 120.453125 205.902344 120.34375 C 205.667969 120.285156 205.441406 120.214844 205.214844 120.136719 C 204.992188 120.058594 204.761719 119.949219 204.554688 119.847656 L 204.527344 119.832031 C 204.484375 119.8125 204.433594 119.8125 204.386719 119.839844 C 204.316406 119.878906 204.296875 119.972656 204.335938 120.039062 C 204.496094 120.3125 204.71875 120.488281 204.964844 120.644531 Z M 337.675781 229.519531 L 326.570312 212.820312 L 326.570312 212.675781 L 318.539062 212.585938 L 310.503906 212.554688 L 294.4375 212.5 L 278.371094 212.570312 L 270.335938 212.605469 L 262.300781 212.695312 L 262.300781 212.941406 L 262.488281 212.945312 L 263.125 213.367188 L 265.25 217.027344 L 261.503906 216.492188 C 261.527344 216.484375 261.554688 216.476562 261.574219 216.460938 C 261.722656 216.390625 261.84375 216.28125 261.953125 216.160156 C 262.058594 216.035156 262.148438 215.902344 262.203125 215.75 C 262.257812 215.59375 262.296875 215.433594 262.28125 215.265625 C 262.273438 215.234375 262.261719 215.203125 262.242188 215.175781 C 262.183594 215.109375 262.082031 215.101562 262.015625 215.160156 L 262.007812 215.164062 C 261.890625 215.265625 261.804688 215.363281 261.714844 215.460938 C 261.625 215.554688 261.546875 215.652344 261.46875 215.746094 C 261.390625 215.84375 261.308594 215.9375 261.230469 216.042969 C 261.152344 216.148438 261.070312 216.253906 260.988281 216.386719 L 260.984375 216.390625 C 260.984375 216.398438 260.984375 216.398438 260.980469 216.40625 L 260.945312 216.347656 L 257.25 215.566406 C 257.273438 215.476562 257.296875 215.386719 257.316406 215.300781 C 257.382812 214.992188 257.398438 214.679688 257.402344 214.367188 C 257.394531 214.050781 257.367188 213.738281 257.296875 213.429688 C 257.234375 213.125 257.144531 212.820312 257 212.542969 C 256.972656 212.492188 256.921875 212.460938 256.867188 212.460938 C 256.785156 212.457031 256.714844 212.527344 256.714844 212.609375 C 256.710938 212.914062 256.726562 213.207031 256.734375 213.5 L 256.761719 214.375 L 256.777344 215.25 C 256.78125 215.4375 256.785156 215.628906 256.789062 215.820312 L 254.945312 215.558594 C 248.535156 214.597656 242.121094 213.625 235.773438 212.371094 C 234.1875 212.054688 232.597656 211.734375 231.066406 211.285156 C 230.691406 211.164062 230.304688 211.039062 229.984375 210.875 C 229.8125 210.78125 229.78125 210.761719 229.652344 210.554688 L 229.328125 210.0625 C 228.902344 209.378906 228.476562 208.6875 228.066406 207.992188 C 226.40625 205.210938 224.78125 202.402344 223.160156 199.59375 L 217.425781 189.632812 L 285.945312 189.632812 L 289.71875 204.0625 L 316.90625 204.0625 L 313.132812 189.632812 L 354.417969 189.632812 C 358.449219 189.632812 361.832031 186.601562 362.273438 182.601562 L 372.207031 92.992188 C 372.726562 88.3125 369.0625 84.21875 364.351562 84.21875 L 225.234375 84.21875 C 221.207031 84.21875 217.824219 87.246094 217.382812 91.25 L 208.679688 169.742188 C 209.5 172.144531 210.179688 174.488281 210.613281 176.640625 L 220.046875 91.546875 C 220.339844 88.898438 222.570312 86.902344 225.234375 86.902344 L 364.351562 86.902344 C 365.855469 86.902344 367.238281 87.519531 368.242188 88.640625 C 369.246094 89.761719 369.707031 91.199219 369.542969 92.695312 L 359.609375 182.304688 C 359.316406 184.949219 357.082031 186.949219 354.417969 186.949219 L 291.570312 186.949219 C 291.636719 186.851562 291.679688 186.738281 291.679688 186.613281 C 291.679688 186.257812 291.394531 185.96875 291.039062 185.96875 L 286.765625 185.96875 C 286.410156 185.96875 286.125 186.257812 286.125 186.613281 C 286.125 186.738281 286.167969 186.851562 286.234375 186.949219 L 215.878906 186.949219 L 213.449219 182.734375 C 213.417969 182.679688 213.34375 182.660156 213.285156 182.691406 C 213.226562 182.722656 213.203125 182.796875 213.238281 182.859375 L 215.5 186.949219 L 215.425781 186.949219 C 215.890625 187.859375 216.351562 188.753906 216.808594 189.632812 L 216.980469 189.632812 L 217.941406 191.371094 L 222.726562 199.847656 C 224.328125 202.664062 225.929688 205.484375 227.574219 208.28125 C 227.980469 208.984375 228.402344 209.679688 228.828125 210.375 L 229.167969 210.898438 C 229.242188 210.992188 229.246094 211.054688 229.386719 211.179688 C 229.5 211.296875 229.597656 211.339844 229.699219 211.402344 C 230.101562 211.609375 230.492188 211.734375 230.886719 211.863281 C 232.464844 212.339844 234.054688 212.667969 235.648438 212.996094 C 242.03125 214.226562 248.453125 215.15625 254.871094 216.082031 L 264.511719 217.40625 L 274.167969 218.589844 C 274.246094 218.597656 274.320312 218.542969 274.328125 218.464844 C 274.339844 218.382812 274.285156 218.3125 274.207031 218.300781 L 270.636719 217.792969 L 273.792969 213.050781 L 278.371094 213.070312 L 294.4375 213.136719 L 310.503906 213.082031 L 318.539062 213.054688 L 322.421875 213.011719 L 333.402344 229.519531 L 329.335938 229.519531 L 323.507812 222.925781 L 320.816406 224.691406 L 325.796875 229.519531 L 309.660156 229.519531 L 324.332031 220.207031 L 303.65625 220.207031 L 306.765625 225.917969 C 307.003906 226.355469 306.824219 226.90625 306.371094 227.113281 C 305.53125 227.054688 304.582031 226.65625 303.777344 226.097656 C 303.777344 226.078125 303.78125 226.0625 303.777344 226.046875 C 303.429688 225.230469 303.421875 224.332031 303.3125 223.40625 C 303.261719 222.941406 303.160156 222.464844 302.980469 222.003906 C 302.796875 221.542969 302.535156 221.125 302.230469 220.746094 C 301.609375 220.007812 300.855469 219.425781 300.097656 218.90625 C 299.339844 218.386719 298.578125 217.898438 297.898438 217.300781 C 297.855469 217.261719 297.789062 217.257812 297.738281 217.300781 C 297.6875 217.34375 297.679688 217.417969 297.722656 217.46875 C 298.3125 218.203125 299.0625 218.777344 299.777344 219.34375 C 300.492188 219.90625 301.199219 220.460938 301.734375 221.148438 C 302.007812 221.484375 302.246094 221.847656 302.410156 222.234375 C 302.582031 222.625 302.660156 223.050781 302.75 223.492188 C 302.882812 224.203125 302.964844 224.992188 303.277344 225.710938 C 302.882812 225.375 302.542969 225.003906 302.308594 224.617188 L 300.265625 221.199219 L 296.632812 220.320312 C 296.625 220.3125 296.621094 220.300781 296.613281 220.292969 C 296.578125 220.253906 296.527344 220.234375 296.476562 220.253906 C 296.464844 220.257812 296.460938 220.269531 296.449219 220.277344 L 296.402344 220.265625 L 291.289062 224.21875 C 291.296875 224.1875 291.300781 224.160156 291.304688 224.132812 C 291.332031 223.867188 291.316406 223.597656 291.277344 223.332031 C 291.230469 223.066406 291.160156 222.804688 291.050781 222.5625 C 290.941406 222.316406 290.808594 222.082031 290.625 221.882812 C 290.589844 221.847656 290.535156 221.828125 290.488281 221.835938 C 290.402344 221.847656 290.347656 221.929688 290.363281 222.011719 C 290.402344 222.265625 290.464844 222.5 290.507812 222.734375 C 290.550781 222.972656 290.605469 223.203125 290.644531 223.441406 C 290.691406 223.671875 290.722656 223.910156 290.761719 224.148438 C 290.785156 224.289062 290.808594 224.433594 290.828125 224.578125 L 286.769531 227.71875 C 285.613281 228.613281 284.277344 229.214844 282.871094 229.519531 L 278.921875 229.519531 L 273.921875 228.828125 C 274.226562 228.554688 274.503906 228.234375 274.695312 227.859375 C 274.945312 227.402344 275.0625 226.859375 274.984375 226.355469 C 274.976562 226.292969 274.925781 226.242188 274.859375 226.230469 C 274.78125 226.222656 274.707031 226.277344 274.695312 226.355469 C 274.625 226.808594 274.464844 227.214844 274.222656 227.574219 C 274.117188 227.722656 273.992188 227.859375 273.867188 227.996094 C 273.859375 227.699219 273.824219 227.410156 273.753906 227.125 C 273.621094 226.570312 273.390625 226.046875 273.042969 225.609375 C 273.011719 225.566406 272.953125 225.550781 272.902344 225.570312 C 272.835938 225.59375 272.808594 225.664062 272.832031 225.730469 C 273.015625 226.222656 273.152344 226.71875 273.207031 227.222656 C 273.265625 227.726562 273.265625 228.226562 273.1875 228.71875 C 273.183594 228.738281 273.1875 228.75 273.1875 228.769531 L 238.734375 228.519531 L 237.226562 229.519531 L 205.664062 229.519531 C 205.746094 229.734375 205.824219 229.945312 205.90625 230.160156 L 372.257812 230.160156 L 372.257812 229.519531 Z M 110.507812 229.519531 L 110.507812 230.160156 L 182.230469 230.160156 C 186.578125 230.160156 187.828125 229.519531 187.828125 229.519531 C 188.394531 229.367188 188.933594 229.160156 189.449219 228.910156 C 193.128906 227.109375 195.34375 222.917969 194.296875 218.597656 L 182.019531 168.097656 C 181.027344 164.019531 177.378906 161.152344 173.183594 161.152344 L 104.613281 161.152344 C 98.722656 161.152344 94.382812 166.667969 95.773438 172.394531 L 108.050781 222.890625 C 108.847656 226.171875 111.367188 228.664062 114.503906 229.519531 Z M 210.082031 239.53125 C 210.082031 239.53125 210.066406 239.652344 210.03125 239.855469 C 209.585938 242.53125 205.5 261.746094 180.15625 261.746094 C 170.878906 261.746094 164.171875 260.210938 160.4375 259.054688 C 161.765625 266.640625 168.378906 272.410156 176.34375 272.410156 L 225.097656 272.410156 C 237.167969 272.410156 248.945312 267.382812 248.945312 267.382812 L 245.160156 289.816406 L 270.015625 289.816406 C 270.015625 289.816406 272.890625 267.382812 274.128906 252.328125 C 274.855469 243.515625 268.367188 240.6875 262.859375 239.855469 L 307.574219 239.855469 L 304.671875 264.851562 L 313.859375 266.375 L 316.941406 239.855469 L 350.035156 239.855469 L 353.882812 273.007812 L 363.433594 274.585938 L 359.402344 239.855469 L 372.257812 239.855469 L 372.257812 239.210938 L 209.914062 239.210938 C 210.019531 239.417969 210.082031 239.53125 210.082031 239.53125 Z M 154.554688 239.210938 L 110.507812 239.210938 L 110.507812 239.855469 L 131.699219 239.855469 C 131.679688 239.949219 131.6875 240.050781 131.660156 240.144531 L 131.574219 240.789062 C 131.511719 241.222656 131.488281 241.65625 131.445312 242.089844 L 131.371094 243.398438 L 131.335938 244.046875 L 131.320312 244.375 C 131.328125 244.488281 131.246094 244.585938 131.457031 244.71875 C 131.691406 244.636719 131.632812 244.523438 131.667969 244.417969 L 131.726562 244.09375 L 131.839844 243.449219 L 132.070312 242.164062 C 132.128906 241.730469 132.203125 241.300781 132.242188 240.867188 L 132.308594 240.21875 C 132.300781 240.097656 132.351562 239.980469 132.328125 239.855469 L 154.566406 239.855469 C 154.5625 239.640625 154.558594 239.429688 154.554688 239.210938 Z M 263.515625 99.960938 C 263.515625 99.605469 263.230469 99.316406 262.875 99.316406 L 253.324219 99.316406 C 252.972656 99.316406 252.683594 99.605469 252.683594 99.960938 C 252.683594 100.316406 252.972656 100.601562 253.324219 100.601562 L 262.875 100.601562 C 263.230469 100.601562 263.515625 100.316406 263.515625 99.960938 Z M 238.171875 99.960938 C 238.105469 100.484375 238.476562 100.910156 239 100.910156 C 239.523438 100.910156 240.003906 100.484375 240.070312 99.960938 C 240.136719 99.4375 239.765625 99.011719 239.238281 99.011719 C 238.71875 99.011719 238.238281 99.4375 238.171875 99.960938 Z M 235.410156 100.910156 C 234.886719 100.910156 234.515625 100.484375 234.582031 99.960938 C 234.648438 99.4375 235.125 99.011719 235.648438 99.011719 C 236.171875 99.011719 236.542969 99.4375 236.476562 99.960938 C 236.414062 100.484375 235.933594 100.910156 235.410156 100.910156 " fill-opacity="1" fill-rule="nonzero"/></g><g clip-path="url(#a52b87f6d0)"><path fill="#545454" d="M 325.234375 204.0625 L 320.070312 204.0625 L 316.296875 189.632812 L 313.132812 189.632812 L 316.90625 204.0625 L 262.855469 204.0625 C 260.128906 204.0625 257.914062 206.273438 257.914062 209.007812 L 330.179688 209.007812 C 330.179688 206.273438 327.964844 204.0625 325.234375 204.0625 Z M 150.441406 203.722656 L 139.792969 203.722656 C 139.113281 203.722656 138.535156 204.234375 138.457031 204.914062 L 129.835938 279.617188 C 129.746094 280.414062 130.371094 281.113281 131.171875 281.113281 L 141.824219 281.113281 C 142.503906 281.113281 143.078125 280.601562 143.160156 279.925781 L 151.777344 205.222656 C 151.871094 204.421875 151.246094 203.722656 150.441406 203.722656 Z M 309.175781 229.824219 L 313.496094 229.824219 L 323.335938 223.359375 L 329.054688 229.824219 L 332.246094 229.824219 L 324.332031 220.207031 Z M 368.585938 84.21875 L 364.351562 84.21875 C 369.0625 84.21875 372.726562 88.3125 372.207031 92.992188 L 362.273438 182.601562 C 361.832031 186.601562 358.449219 189.632812 354.417969 189.632812 L 358.652344 189.632812 C 362.679688 189.632812 366.066406 186.601562 366.507812 182.601562 L 376.441406 92.992188 C 376.960938 88.3125 373.296875 84.21875 368.585938 84.21875 Z M 263.515625 99.960938 C 263.515625 99.605469 263.230469 99.316406 262.875 99.316406 L 253.324219 99.316406 C 252.972656 99.316406 252.683594 99.605469 252.683594 99.960938 C 252.683594 100.316406 252.972656 100.601562 253.324219 100.601562 L 262.875 100.601562 C 263.230469 100.601562 263.515625 100.316406 263.515625 99.960938 Z M 239.238281 99.011719 C 238.71875 99.011719 238.238281 99.4375 238.171875 99.960938 C 238.105469 100.484375 238.476562 100.910156 239 100.910156 C 239.523438 100.910156 240.003906 100.484375 240.070312 99.960938 C 240.136719 99.4375 239.765625 99.011719 239.238281 99.011719 Z M 235.648438 99.011719 C 235.125 99.011719 234.648438 99.4375 234.582031 99.960938 C 234.515625 100.484375 234.886719 100.910156 235.410156 100.910156 C 235.933594 100.910156 236.414062 100.484375 236.476562 99.960938 C 236.542969 99.4375 236.171875 99.011719 235.648438 99.011719 Z M 243.660156 99.960938 C 243.597656 100.484375 243.117188 100.910156 242.59375 100.910156 C 242.070312 100.910156 241.699219 100.484375 241.765625 99.960938 C 241.828125 99.4375 242.308594 99.011719 242.832031 99.011719 C 243.355469 99.011719 243.726562 99.4375 243.660156 99.960938 " fill-opacity="1" fill-rule="nonzero"/></g></svg>