<svg xmlns="http://www.w3.org/2000/svg" xmlns:xlink="http://www.w3.org/1999/xlink" width="600" zoomAndPan="magnify" viewBox="0 0 450 299.999988" height="400" preserveAspectRatio="xMidYMid meet" version="1.0"><defs><clipPath id="6f901a088b"><path d="M 96.363281 52.199219 L 322.84375 52.199219 L 322.84375 278.613281 L 96.363281 278.613281 Z M 96.363281 52.199219 " clip-rule="nonzero"/></clipPath><clipPath id="a5e5b3280e"><path d="M 189.402344 21.363281 L 353.613281 21.363281 L 353.613281 185.640625 L 189.402344 185.640625 Z M 189.402344 21.363281 " clip-rule="nonzero"/></clipPath></defs><g clip-path="url(#6f901a088b)"><path fill="#c2dfed" d="M 274.023438 230.070312 C 238.453125 265.640625 180.59375 265.664062 144.996094 230.144531 C 109.699219 194.925781 109.304688 137.457031 144.128906 101.773438 C 172.550781 72.652344 215.691406 66.667969 250.171875 83.808594 C 251.554688 84.492188 253.21875 84.226562 254.3125 83.136719 L 265.183594 72.261719 C 266.863281 70.582031 266.480469 67.753906 264.410156 66.597656 C 247.796875 57.339844 229.015625 52.414062 209.472656 52.414062 C 179.261719 52.414062 150.855469 64.175781 129.492188 85.539062 C 108.128906 106.902344 96.363281 135.308594 96.363281 165.523438 C 96.363281 195.59375 108.019531 223.875 129.195312 245.203125 C 149.933594 266.09375 178.097656 278.125 207.53125 278.613281 C 239.0625 279.140625 268.757812 266.863281 290.707031 244.226562 C 311.175781 223.125 322.621094 194.765625 322.582031 165.367188 C 322.558594 145.878906 317.628906 127.148438 308.390625 110.578125 C 307.238281 108.507812 304.410156 108.132812 302.730469 109.808594 L 291.859375 120.683594 C 290.765625 121.777344 290.503906 123.441406 291.191406 124.828125 C 308.167969 158.984375 302.449219 201.644531 274.023438 230.070312 " fill-opacity="1" fill-rule="nonzero"/></g><path fill="#c2dfed" d="M 161.382812 117.429688 C 135.101562 143.707031 134.867188 186.316406 160.667969 212.890625 C 186.859375 239.859375 230.324219 240.386719 257.136719 214.035156 C 275.871094 195.625 281.648438 169.003906 274.46875 145.527344 C 273.675781 142.9375 270.410156 142.128906 268.5 144.042969 L 256.242188 156.300781 C 255.445312 157.097656 255.074219 158.21875 255.226562 159.332031 C 257.054688 172.972656 252.808594 187.28125 242.484375 197.828125 C 224.675781 216.015625 195.207031 216.296875 177.066406 198.4375 C 158.800781 180.449219 158.71875 150.957031 176.8125 132.859375 C 187.394531 122.28125 201.871094 117.917969 215.667969 119.769531 C 216.78125 119.917969 217.898438 119.550781 218.691406 118.757812 L 230.953125 106.496094 C 232.859375 104.585938 232.0625 101.320312 229.480469 100.53125 C 206.179688 93.398438 179.78125 99.035156 161.382812 117.429688 " fill-opacity="1" fill-rule="nonzero"/><g clip-path="url(#a5e5b3280e)"><path fill="#c2dfed" d="M 330.648438 49.703125 C 327.730469 49.609375 325.382812 47.265625 325.289062 44.34375 L 324.636719 24.058594 C 324.554688 21.628906 321.613281 20.460938 319.894531 22.183594 L 293.441406 48.632812 C 289.257812 52.820312 286.992188 58.550781 287.183594 64.46875 C 287.308594 68.40625 285.796875 72.21875 283.015625 75.007812 L 215.863281 142.15625 C 213.652344 144.367188 210.722656 145.679688 207.605469 145.976562 C 203.21875 146.390625 198.945312 148.273438 195.585938 151.632812 C 195.390625 151.828125 195.203125 152.023438 195.015625 152.226562 C 188.128906 159.699219 188.140625 171.382812 195.042969 178.84375 C 202.65625 187.074219 215.503906 187.261719 223.359375 179.410156 C 226.714844 176.054688 228.597656 171.789062 229.019531 167.40625 C 229.316406 164.285156 230.621094 161.34375 232.839844 159.128906 L 299.988281 91.980469 C 302.773438 89.195312 306.585938 87.6875 310.523438 87.8125 C 316.441406 88.003906 322.175781 85.738281 326.359375 81.550781 L 352.808594 55.101562 C 354.53125 53.378906 353.367188 50.4375 350.9375 50.359375 L 330.648438 49.703125 " fill-opacity="1" fill-rule="nonzero"/></g></svg>