<svg xmlns="http://www.w3.org/2000/svg" xmlns:xlink="http://www.w3.org/1999/xlink" width="600" zoomAndPan="magnify" viewBox="0 0 450 299.999988" height="400" preserveAspectRatio="xMidYMid meet" version="1.0"><defs><clipPath id="4dadd43b34"><path d="M 70.292969 67 L 380 67 L 380 233 L 70.292969 233 Z M 70.292969 67 " clip-rule="nonzero"/></clipPath><clipPath id="4898391827"><path d="M 219 17.53125 L 231 17.53125 L 231 29 L 219 29 Z M 219 17.53125 " clip-rule="nonzero"/></clipPath><clipPath id="ca9a4d5422"><path d="M 219 271 L 231 271 L 231 282.28125 L 219 282.28125 Z M 219 271 " clip-rule="nonzero"/></clipPath></defs><g clip-path="url(#4dadd43b34)"><path fill="#c2dfed" d="M 377.816406 146.402344 C 376.863281 145.292969 368.449219 135.6875 354.449219 123.53125 C 354.308594 122.816406 354.179688 122.089844 354.019531 121.378906 L 352.359375 121.746094 C 349.058594 118.933594 345.503906 116.015625 341.660156 113.042969 L 350.992188 110.085938 C 349.832031 106.417969 348.503906 102.78125 347.035156 99.261719 L 336.867188 103.492188 C 337.976562 106.15625 338.9375 108.914062 339.859375 111.675781 C 312.007812 90.464844 271.144531 67.414062 225 67.414062 C 178.855469 67.414062 138 90.460938 110.144531 111.671875 C 111.039062 108.972656 111.976562 106.265625 113.070312 103.617188 L 102.898438 99.410156 C 101.421875 102.96875 100.101562 106.605469 98.949219 110.242188 L 108.1875 113.152344 C 104.394531 116.09375 100.886719 118.972656 97.628906 121.753906 L 95.972656 121.390625 C 95.816406 122.097656 95.691406 122.820312 95.546875 123.53125 C 81.546875 135.6875 73.132812 145.292969 72.183594 146.402344 C 70.398438 148.464844 70.398438 151.53125 72.183594 153.597656 C 73.132812 154.703125 81.546875 164.308594 95.546875 176.464844 C 95.691406 177.183594 95.816406 177.902344 95.972656 178.609375 L 97.628906 178.246094 C 100.933594 181.058594 104.488281 183.976562 108.335938 186.953125 L 99.003906 189.910156 C 100.167969 193.578125 101.492188 197.214844 102.964844 200.734375 L 113.132812 196.507812 C 112.019531 193.839844 111.0625 191.082031 110.136719 188.320312 C 137.988281 209.527344 178.851562 232.578125 225 232.578125 C 271.140625 232.578125 311.996094 209.53125 339.855469 188.320312 C 338.957031 191.015625 338.023438 193.726562 336.925781 196.375 L 347.101562 200.582031 C 348.574219 197.023438 349.898438 193.382812 351.046875 189.75 L 341.808594 186.839844 C 345.597656 183.902344 349.105469 181.023438 352.363281 178.25 L 354.027344 178.617188 C 354.1875 177.902344 354.308594 177.183594 354.457031 176.464844 C 368.457031 164.308594 376.867188 154.703125 377.820312 153.597656 C 379.597656 151.527344 379.597656 148.464844 377.816406 146.402344 Z M 291.066406 149.996094 C 291.066406 189.460938 261.429688 221.566406 225 221.566406 C 188.570312 221.566406 158.933594 189.460938 158.933594 149.996094 C 158.933594 110.53125 188.570312 78.425781 225 78.425781 C 261.429688 78.425781 291.066406 110.53125 291.066406 149.996094 Z M 83.832031 149.996094 C 94.359375 138.929688 128.972656 105.203125 173.929688 88.304688 C 158.019531 103.441406 147.921875 125.453125 147.921875 149.996094 C 147.921875 174.539062 158.019531 196.550781 173.933594 211.683594 C 128.972656 194.789062 94.363281 161.0625 83.832031 149.996094 Z M 276.0625 211.683594 C 291.980469 196.550781 302.074219 174.539062 302.074219 149.996094 C 302.074219 125.453125 291.980469 103.441406 276.0625 88.304688 C 321.027344 105.203125 355.632812 138.929688 366.164062 149.996094 C 355.632812 161.0625 321.027344 194.789062 276.0625 211.683594 Z M 276.0625 211.683594 " fill-opacity="1" fill-rule="nonzero"/></g><path fill="#c2dfed" d="M 188.515625 34.472656 L 185.199219 23.96875 C 181.570312 25.113281 177.933594 26.441406 174.375 27.917969 L 178.59375 38.089844 C 181.851562 36.734375 185.195312 35.519531 188.515625 34.472656 Z M 188.515625 34.472656 " fill-opacity="1" fill-rule="nonzero"/><g clip-path="url(#4898391827)"><path fill="#c2dfed" d="M 230.207031 28.984375 L 230.667969 17.984375 C 226.835938 17.824219 222.960938 17.832031 219.15625 17.996094 L 219.632812 28.996094 C 223.136719 28.839844 226.707031 28.839844 230.207031 28.984375 Z M 230.207031 28.984375 " fill-opacity="1" fill-rule="nonzero"/></g><path fill="#c2dfed" d="M 209.121094 29.902344 L 207.679688 18.992188 C 203.875 19.492188 200.054688 20.164062 196.332031 20.984375 L 198.710938 31.738281 C 202.128906 30.976562 205.625 30.367188 209.121094 29.902344 Z M 209.121094 29.902344 " fill-opacity="1" fill-rule="nonzero"/><path fill="#c2dfed" d="M 169.039062 42.542969 L 163.933594 32.792969 C 160.519531 34.578125 157.164062 36.519531 153.964844 38.5625 L 159.890625 47.847656 C 162.832031 45.964844 165.90625 44.183594 169.039062 42.542969 Z M 169.039062 42.542969 " fill-opacity="1" fill-rule="nonzero"/><path fill="#c2dfed" d="M 151.246094 53.902344 L 144.535156 45.171875 C 141.484375 47.515625 138.519531 50.011719 135.703125 52.59375 L 143.160156 60.703125 C 145.734375 58.339844 148.457031 56.050781 151.246094 53.902344 Z M 151.246094 53.902344 " fill-opacity="1" fill-rule="nonzero"/><path fill="#c2dfed" d="M 135.699219 68.171875 L 127.578125 60.730469 C 124.992188 63.554688 122.496094 66.519531 120.164062 69.558594 L 128.894531 76.269531 C 131.042969 73.484375 133.328125 70.753906 135.699219 68.171875 Z M 135.699219 68.171875 " fill-opacity="1" fill-rule="nonzero"/><path fill="#c2dfed" d="M 122.828125 84.914062 L 113.546875 78.992188 C 111.496094 82.199219 109.546875 85.554688 107.769531 88.96875 L 117.53125 94.066406 C 119.167969 90.925781 120.957031 87.855469 122.828125 84.914062 Z M 122.828125 84.914062 " fill-opacity="1" fill-rule="nonzero"/><path fill="#c2dfed" d="M 314.171875 52.492188 C 311.347656 49.90625 308.375 47.410156 305.339844 45.082031 L 298.640625 53.824219 C 301.425781 55.960938 304.152344 58.246094 306.746094 60.609375 Z M 314.171875 52.492188 " fill-opacity="1" fill-rule="nonzero"/><path fill="#c2dfed" d="M 253.5 20.953125 C 249.773438 20.136719 245.957031 19.464844 242.148438 18.976562 L 240.726562 29.886719 C 244.21875 30.34375 247.71875 30.957031 251.132812 31.703125 Z M 253.5 20.953125 " fill-opacity="1" fill-rule="nonzero"/><path fill="#c2dfed" d="M 329.742188 69.445312 C 327.402344 66.40625 324.90625 63.445312 322.320312 60.625 L 314.210938 68.078125 C 316.582031 70.660156 318.875 73.382812 321.015625 76.167969 Z M 329.742188 69.445312 " fill-opacity="1" fill-rule="nonzero"/><path fill="#c2dfed" d="M 332.402344 93.9375 L 342.152344 88.820312 C 340.363281 85.414062 338.414062 82.058594 336.363281 78.859375 L 327.09375 84.792969 C 328.976562 87.734375 330.761719 90.8125 332.402344 93.9375 Z M 332.402344 93.9375 " fill-opacity="1" fill-rule="nonzero"/><path fill="#c2dfed" d="M 295.90625 38.488281 C 292.660156 36.421875 289.308594 34.480469 285.921875 32.71875 L 280.835938 42.476562 C 283.933594 44.097656 287.011719 45.871094 289.980469 47.765625 Z M 295.90625 38.488281 " fill-opacity="1" fill-rule="nonzero"/><path fill="#c2dfed" d="M 275.480469 27.851562 C 271.957031 26.386719 268.304688 25.066406 264.632812 23.910156 L 261.328125 34.414062 C 264.695312 35.464844 268.03125 36.679688 271.25 38.019531 Z M 275.480469 27.851562 " fill-opacity="1" fill-rule="nonzero"/><path fill="#c2dfed" d="M 154.09375 261.503906 C 157.335938 263.570312 160.6875 265.511719 164.074219 267.273438 L 169.160156 257.511719 C 166.0625 255.894531 162.984375 254.121094 160.015625 252.226562 Z M 154.09375 261.503906 " fill-opacity="1" fill-rule="nonzero"/><path fill="#c2dfed" d="M 240.875 270.085938 L 242.320312 281 C 246.125 280.5 249.945312 279.828125 253.667969 279.007812 L 251.289062 268.253906 C 247.867188 269.015625 244.371094 269.625 240.875 270.085938 Z M 240.875 270.085938 " fill-opacity="1" fill-rule="nonzero"/><path fill="#c2dfed" d="M 261.484375 265.519531 L 264.796875 276.023438 C 268.425781 274.878906 272.066406 273.550781 275.621094 272.074219 L 271.40625 261.902344 C 268.144531 263.253906 264.804688 264.472656 261.484375 265.519531 Z M 261.484375 265.519531 " fill-opacity="1" fill-rule="nonzero"/><path fill="#c2dfed" d="M 280.957031 257.445312 L 286.066406 267.195312 C 289.480469 265.414062 292.832031 263.46875 296.03125 261.425781 L 290.105469 252.144531 C 287.167969 254.027344 284.089844 255.804688 280.957031 257.445312 Z M 280.957031 257.445312 " fill-opacity="1" fill-rule="nonzero"/><path fill="#c2dfed" d="M 314.296875 231.820312 L 322.417969 239.261719 C 325.007812 236.4375 327.5 233.46875 329.835938 230.429688 L 321.101562 223.71875 C 318.957031 226.507812 316.671875 229.238281 314.296875 231.820312 Z M 314.296875 231.820312 " fill-opacity="1" fill-rule="nonzero"/><path fill="#c2dfed" d="M 327.171875 215.078125 L 336.453125 221 C 338.5 217.789062 340.449219 214.4375 342.226562 211.023438 L 332.464844 205.925781 C 330.832031 209.0625 329.042969 212.136719 327.171875 215.078125 Z M 327.171875 215.078125 " fill-opacity="1" fill-rule="nonzero"/><path fill="#c2dfed" d="M 298.75 246.089844 L 305.460938 254.820312 C 308.511719 252.476562 311.480469 249.980469 314.292969 247.398438 L 306.839844 239.289062 C 304.261719 241.652344 301.542969 243.941406 298.75 246.089844 Z M 298.75 246.089844 " fill-opacity="1" fill-rule="nonzero"/><path fill="#c2dfed" d="M 117.597656 206.054688 L 107.847656 211.171875 C 109.636719 214.574219 111.585938 217.933594 113.632812 221.132812 L 122.90625 215.199219 C 121.023438 212.257812 119.238281 209.179688 117.597656 206.054688 Z M 117.597656 206.054688 " fill-opacity="1" fill-rule="nonzero"/><path fill="#c2dfed" d="M 120.257812 230.550781 C 122.597656 233.589844 125.089844 236.554688 127.679688 239.371094 L 135.789062 231.917969 C 133.414062 229.335938 131.125 226.617188 128.984375 223.832031 Z M 120.257812 230.550781 " fill-opacity="1" fill-rule="nonzero"/><path fill="#c2dfed" d="M 135.824219 247.5 C 138.648438 250.085938 141.625 252.578125 144.65625 254.910156 L 151.355469 246.167969 C 148.570312 244.03125 145.847656 241.746094 143.253906 239.382812 Z M 135.824219 247.5 " fill-opacity="1" fill-rule="nonzero"/><path fill="#c2dfed" d="M 196.496094 279.039062 C 200.222656 279.855469 204.039062 280.527344 207.847656 281.015625 L 209.269531 270.105469 C 205.777344 269.648438 202.277344 269.035156 198.863281 268.289062 Z M 196.496094 279.039062 " fill-opacity="1" fill-rule="nonzero"/><path fill="#c2dfed" d="M 174.519531 272.140625 C 178.042969 273.605469 181.691406 274.925781 185.363281 276.082031 L 188.667969 265.578125 C 185.304688 264.527344 181.96875 263.308594 178.746094 261.972656 Z M 174.519531 272.140625 " fill-opacity="1" fill-rule="nonzero"/><g clip-path="url(#ca9a4d5422)"><path fill="#c2dfed" d="M 219.789062 271.007812 L 219.328125 282.007812 C 221.210938 282.089844 223.097656 282.128906 225 282.128906 C 226.957031 282.128906 228.90625 282.085938 230.839844 282 L 230.367188 271 C 226.859375 271.144531 223.292969 271.15625 219.789062 271.007812 Z M 219.789062 271.007812 " fill-opacity="1" fill-rule="nonzero"/></g><path fill="#c2dfed" d="M 179.339844 175.910156 L 202.976562 152.273438 L 221.105469 170.40625 C 223.257812 172.558594 226.738281 172.558594 228.890625 170.40625 L 263.539062 135.757812 L 263.539062 149.996094 L 274.546875 149.996094 L 274.546875 122.46875 C 274.546875 119.421875 272.085938 116.960938 269.042969 116.960938 L 241.515625 116.960938 L 241.515625 127.972656 L 255.753906 127.972656 L 225 158.726562 L 206.871094 140.597656 C 204.714844 138.445312 201.238281 138.445312 199.085938 140.597656 L 171.558594 168.125 Z M 179.339844 175.910156 " fill-opacity="1" fill-rule="nonzero"/><path fill="#c2dfed" d="M 219.492188 183.027344 L 230.503906 183.027344 L 230.503906 194.039062 L 219.492188 194.039062 Z M 219.492188 183.027344 " fill-opacity="1" fill-rule="nonzero"/><path fill="#c2dfed" d="M 241.515625 183.027344 L 252.527344 183.027344 L 252.527344 194.039062 L 241.515625 194.039062 Z M 241.515625 183.027344 " fill-opacity="1" fill-rule="nonzero"/><path fill="#c2dfed" d="M 197.472656 183.027344 L 208.480469 183.027344 L 208.480469 194.039062 L 197.472656 194.039062 Z M 197.472656 183.027344 " fill-opacity="1" fill-rule="nonzero"/></svg>